%TF.GenerationSoftware,KiCad,Pcbnew,7.0.2-0*%
%TF.CreationDate,2023-05-07T21:32:26-07:00*%
%TF.ProjectId,VR-better,56522d62-6574-4746-9572-2e6b69636164,rev?*%
%TF.SameCoordinates,Original*%
%TF.FileFunction,Soldermask,Bot*%
%TF.FilePolarity,Negative*%
%FSLAX46Y46*%
G04 Gerber Fmt 4.6, Leading zero omitted, Abs format (unit mm)*
G04 Created by KiCad (PCBNEW 7.0.2-0) date 2023-05-07 21:32:26*
%MOMM*%
%LPD*%
G01*
G04 APERTURE LIST*
%ADD10R,1.500000X1.050000*%
%ADD11O,1.500000X1.050000*%
%ADD12C,1.600000*%
%ADD13R,1.600000X1.600000*%
%ADD14R,3.960000X1.980000*%
%ADD15O,3.960000X1.980000*%
%ADD16O,1.600000X1.600000*%
G04 APERTURE END LIST*
D10*
%TO.C,BJT0*%
X87220000Y-129300000D03*
D11*
X87220000Y-130570000D03*
X87220000Y-131840000D03*
%TD*%
D12*
%TO.C,C0*%
X72220000Y-132000000D03*
X72220000Y-129500000D03*
%TD*%
%TO.C,C_Pow1*%
X91220000Y-101840000D03*
D13*
X89220000Y-101840000D03*
%TD*%
D14*
%TO.C,DOWN(3)*%
X61000000Y-140235000D03*
D15*
X61000000Y-145235000D03*
%TD*%
D11*
%TO.C,BJT2*%
X87220000Y-144110000D03*
X87220000Y-142840000D03*
D10*
X87220000Y-141570000D03*
%TD*%
D11*
%TO.C,BJT3*%
X87220000Y-149840000D03*
X87220000Y-148570000D03*
D10*
X87220000Y-147300000D03*
%TD*%
D14*
%TO.C,LEFT(0)*%
X61000000Y-104235000D03*
D15*
X61000000Y-109235000D03*
%TD*%
%TO.C,RIGHT(1)*%
X61000000Y-121235000D03*
D14*
X61000000Y-116235000D03*
%TD*%
D12*
%TO.C,C3*%
X72220000Y-147500000D03*
X72220000Y-150000000D03*
%TD*%
%TO.C,C2*%
X72220000Y-141500000D03*
X72220000Y-144000000D03*
%TD*%
D13*
%TO.C,A1*%
X93954600Y-108559600D03*
D16*
X93954600Y-111099600D03*
X93954600Y-113639600D03*
X93954600Y-116179600D03*
X93954600Y-118719600D03*
X93954600Y-121259600D03*
X93954600Y-123799600D03*
X93954600Y-126339600D03*
X93954600Y-128879600D03*
X93954600Y-131419600D03*
X93954600Y-133959600D03*
X93954600Y-136499600D03*
X93954600Y-139039600D03*
X93954600Y-141579600D03*
X93954600Y-144119600D03*
X109194600Y-144119600D03*
X109194600Y-141579600D03*
X109194600Y-139039600D03*
X109194600Y-136499600D03*
X109194600Y-133959600D03*
X109194600Y-131419600D03*
X109194600Y-128879600D03*
X109194600Y-126339600D03*
X109194600Y-123799600D03*
X109194600Y-121259600D03*
X109194600Y-118719600D03*
X109194600Y-116179600D03*
X109194600Y-113639600D03*
X109194600Y-111099600D03*
X109194600Y-108559600D03*
%TD*%
D14*
%TO.C,UP(2)*%
X61000000Y-128235000D03*
D15*
X61000000Y-133235000D03*
%TD*%
D12*
%TO.C,C1*%
X72220000Y-135500000D03*
X72220000Y-138000000D03*
%TD*%
D10*
%TO.C,BJT1*%
X87220000Y-135300000D03*
D11*
X87220000Y-136570000D03*
X87220000Y-137840000D03*
%TD*%
M02*
