M48
; DRILL file {KiCad 7.0.2-0} date 2023 May 07, Sunday 21:32:35
; FORMAT={-:-/ absolute / inch / decimal}
; #@! TF.CreationDate,2023-05-07T21:32:35-07:00
; #@! TF.GenerationSoftware,Kicad,Pcbnew,7.0.2-0
; #@! TF.FileFunction,Plated,1,2,PTH
FMAT,2
INCH
; #@! TA.AperFunction,Plated,PTH,ViaDrill
T1C0.0157
; #@! TA.AperFunction,Plated,PTH,ComponentDrill
T2C0.0295
; #@! TA.AperFunction,Plated,PTH,ComponentDrill
T3C0.0315
; #@! TA.AperFunction,Plated,PTH,ComponentDrill
T4C0.0394
; #@! TA.AperFunction,Plated,PTH,ComponentDrill
T5C0.0520
%
G90
G05
T1
X3.047Y-5.016
T2
X3.4339Y-5.0906
X3.4339Y-5.1406
X3.4339Y-5.1906
X3.4339Y-5.3268
X3.4339Y-5.3768
X3.4339Y-5.4268
X3.4339Y-5.5736
X3.4339Y-5.6236
X3.4339Y-5.6736
X3.4339Y-5.7992
X3.4339Y-5.8492
X3.4339Y-5.8992
T3
X2.8433Y-5.0984
X2.8433Y-5.1969
X2.8433Y-5.3346
X2.8433Y-5.4331
X2.8433Y-5.5709
X2.8433Y-5.6693
X2.8433Y-5.8071
X2.8433Y-5.9055
X3.5126Y-4.0094
X3.5913Y-4.0094
T4
X3.699Y-4.274
X3.699Y-4.374
X3.699Y-4.474
X3.699Y-4.574
X3.699Y-4.674
X3.699Y-4.774
X3.699Y-4.874
X3.699Y-4.974
X3.699Y-5.074
X3.699Y-5.174
X3.699Y-5.274
X3.699Y-5.374
X3.699Y-5.474
X3.699Y-5.574
X3.699Y-5.674
X4.299Y-4.274
X4.299Y-4.374
X4.299Y-4.474
X4.299Y-4.574
X4.299Y-4.674
X4.299Y-4.774
X4.299Y-4.874
X4.299Y-4.974
X4.299Y-5.074
X4.299Y-5.174
X4.299Y-5.274
X4.299Y-5.374
X4.299Y-5.474
X4.299Y-5.574
X4.299Y-5.674
T5
X2.4016Y-4.1037
X2.4016Y-4.3006
X2.4016Y-4.5762
X2.4016Y-4.773
X2.4016Y-5.0486
X2.4016Y-5.2455
X2.4016Y-5.5211
X2.4016Y-5.7179
T0
M30
