%TF.GenerationSoftware,KiCad,Pcbnew,7.0.2-0*%
%TF.CreationDate,2023-05-07T21:32:26-07:00*%
%TF.ProjectId,VR-better,56522d62-6574-4746-9572-2e6b69636164,rev?*%
%TF.SameCoordinates,Original*%
%TF.FileFunction,Legend,Bot*%
%TF.FilePolarity,Positive*%
%FSLAX46Y46*%
G04 Gerber Fmt 4.6, Leading zero omitted, Abs format (unit mm)*
G04 Created by KiCad (PCBNEW 7.0.2-0) date 2023-05-07 21:32:26*
%MOMM*%
%LPD*%
G01*
G04 APERTURE LIST*
%ADD10C,0.150000*%
G04 APERTURE END LIST*
D10*
X86600951Y-111115238D02*
X85934285Y-113115238D01*
X85934285Y-113115238D02*
X85267618Y-111115238D01*
X83458094Y-113115238D02*
X84124761Y-112162857D01*
X84600951Y-113115238D02*
X84600951Y-111115238D01*
X84600951Y-111115238D02*
X83839046Y-111115238D01*
X83839046Y-111115238D02*
X83648570Y-111210476D01*
X83648570Y-111210476D02*
X83553332Y-111305714D01*
X83553332Y-111305714D02*
X83458094Y-111496190D01*
X83458094Y-111496190D02*
X83458094Y-111781904D01*
X83458094Y-111781904D02*
X83553332Y-111972380D01*
X83553332Y-111972380D02*
X83648570Y-112067619D01*
X83648570Y-112067619D02*
X83839046Y-112162857D01*
X83839046Y-112162857D02*
X84600951Y-112162857D01*
X82600951Y-112353333D02*
X81077142Y-112353333D01*
X79458094Y-112067619D02*
X79172380Y-112162857D01*
X79172380Y-112162857D02*
X79077142Y-112258095D01*
X79077142Y-112258095D02*
X78981904Y-112448571D01*
X78981904Y-112448571D02*
X78981904Y-112734285D01*
X78981904Y-112734285D02*
X79077142Y-112924761D01*
X79077142Y-112924761D02*
X79172380Y-113020000D01*
X79172380Y-113020000D02*
X79362856Y-113115238D01*
X79362856Y-113115238D02*
X80124761Y-113115238D01*
X80124761Y-113115238D02*
X80124761Y-111115238D01*
X80124761Y-111115238D02*
X79458094Y-111115238D01*
X79458094Y-111115238D02*
X79267618Y-111210476D01*
X79267618Y-111210476D02*
X79172380Y-111305714D01*
X79172380Y-111305714D02*
X79077142Y-111496190D01*
X79077142Y-111496190D02*
X79077142Y-111686666D01*
X79077142Y-111686666D02*
X79172380Y-111877142D01*
X79172380Y-111877142D02*
X79267618Y-111972380D01*
X79267618Y-111972380D02*
X79458094Y-112067619D01*
X79458094Y-112067619D02*
X80124761Y-112067619D01*
X77362856Y-113020000D02*
X77553332Y-113115238D01*
X77553332Y-113115238D02*
X77934285Y-113115238D01*
X77934285Y-113115238D02*
X78124761Y-113020000D01*
X78124761Y-113020000D02*
X78219999Y-112829523D01*
X78219999Y-112829523D02*
X78219999Y-112067619D01*
X78219999Y-112067619D02*
X78124761Y-111877142D01*
X78124761Y-111877142D02*
X77934285Y-111781904D01*
X77934285Y-111781904D02*
X77553332Y-111781904D01*
X77553332Y-111781904D02*
X77362856Y-111877142D01*
X77362856Y-111877142D02*
X77267618Y-112067619D01*
X77267618Y-112067619D02*
X77267618Y-112258095D01*
X77267618Y-112258095D02*
X78219999Y-112448571D01*
X76696189Y-111781904D02*
X75934285Y-111781904D01*
X76410475Y-111115238D02*
X76410475Y-112829523D01*
X76410475Y-112829523D02*
X76315237Y-113020000D01*
X76315237Y-113020000D02*
X76124761Y-113115238D01*
X76124761Y-113115238D02*
X75934285Y-113115238D01*
X75553332Y-111781904D02*
X74791428Y-111781904D01*
X75267618Y-111115238D02*
X75267618Y-112829523D01*
X75267618Y-112829523D02*
X75172380Y-113020000D01*
X75172380Y-113020000D02*
X74981904Y-113115238D01*
X74981904Y-113115238D02*
X74791428Y-113115238D01*
X73362856Y-113020000D02*
X73553332Y-113115238D01*
X73553332Y-113115238D02*
X73934285Y-113115238D01*
X73934285Y-113115238D02*
X74124761Y-113020000D01*
X74124761Y-113020000D02*
X74219999Y-112829523D01*
X74219999Y-112829523D02*
X74219999Y-112067619D01*
X74219999Y-112067619D02*
X74124761Y-111877142D01*
X74124761Y-111877142D02*
X73934285Y-111781904D01*
X73934285Y-111781904D02*
X73553332Y-111781904D01*
X73553332Y-111781904D02*
X73362856Y-111877142D01*
X73362856Y-111877142D02*
X73267618Y-112067619D01*
X73267618Y-112067619D02*
X73267618Y-112258095D01*
X73267618Y-112258095D02*
X74219999Y-112448571D01*
X72410475Y-113115238D02*
X72410475Y-111781904D01*
X72410475Y-112162857D02*
X72315237Y-111972380D01*
X72315237Y-111972380D02*
X72219999Y-111877142D01*
X72219999Y-111877142D02*
X72029523Y-111781904D01*
X72029523Y-111781904D02*
X71839046Y-111781904D01*
X85124761Y-114355238D02*
X85124761Y-115974285D01*
X85124761Y-115974285D02*
X85029523Y-116164761D01*
X85029523Y-116164761D02*
X84934285Y-116260000D01*
X84934285Y-116260000D02*
X84743809Y-116355238D01*
X84743809Y-116355238D02*
X84362856Y-116355238D01*
X84362856Y-116355238D02*
X84172380Y-116260000D01*
X84172380Y-116260000D02*
X84077142Y-116164761D01*
X84077142Y-116164761D02*
X83981904Y-115974285D01*
X83981904Y-115974285D02*
X83981904Y-114355238D01*
X83219999Y-114355238D02*
X82743809Y-116355238D01*
X82743809Y-116355238D02*
X82362856Y-114926666D01*
X82362856Y-114926666D02*
X81981904Y-116355238D01*
X81981904Y-116355238D02*
X81505714Y-114355238D01*
X78553332Y-115307619D02*
X78267618Y-115402857D01*
X78267618Y-115402857D02*
X78172380Y-115498095D01*
X78172380Y-115498095D02*
X78077142Y-115688571D01*
X78077142Y-115688571D02*
X78077142Y-115974285D01*
X78077142Y-115974285D02*
X78172380Y-116164761D01*
X78172380Y-116164761D02*
X78267618Y-116260000D01*
X78267618Y-116260000D02*
X78458094Y-116355238D01*
X78458094Y-116355238D02*
X79219999Y-116355238D01*
X79219999Y-116355238D02*
X79219999Y-114355238D01*
X79219999Y-114355238D02*
X78553332Y-114355238D01*
X78553332Y-114355238D02*
X78362856Y-114450476D01*
X78362856Y-114450476D02*
X78267618Y-114545714D01*
X78267618Y-114545714D02*
X78172380Y-114736190D01*
X78172380Y-114736190D02*
X78172380Y-114926666D01*
X78172380Y-114926666D02*
X78267618Y-115117142D01*
X78267618Y-115117142D02*
X78362856Y-115212380D01*
X78362856Y-115212380D02*
X78553332Y-115307619D01*
X78553332Y-115307619D02*
X79219999Y-115307619D01*
X77219999Y-116355238D02*
X77219999Y-114355238D01*
X75886666Y-114355238D02*
X75505713Y-114355238D01*
X75505713Y-114355238D02*
X75315237Y-114450476D01*
X75315237Y-114450476D02*
X75124761Y-114640952D01*
X75124761Y-114640952D02*
X75029523Y-115021904D01*
X75029523Y-115021904D02*
X75029523Y-115688571D01*
X75029523Y-115688571D02*
X75124761Y-116069523D01*
X75124761Y-116069523D02*
X75315237Y-116260000D01*
X75315237Y-116260000D02*
X75505713Y-116355238D01*
X75505713Y-116355238D02*
X75886666Y-116355238D01*
X75886666Y-116355238D02*
X76077142Y-116260000D01*
X76077142Y-116260000D02*
X76267618Y-116069523D01*
X76267618Y-116069523D02*
X76362856Y-115688571D01*
X76362856Y-115688571D02*
X76362856Y-115021904D01*
X76362856Y-115021904D02*
X76267618Y-114640952D01*
X76267618Y-114640952D02*
X76077142Y-114450476D01*
X76077142Y-114450476D02*
X75886666Y-114355238D01*
X74172380Y-115307619D02*
X73505713Y-115307619D01*
X73219999Y-116355238D02*
X74172380Y-116355238D01*
X74172380Y-116355238D02*
X74172380Y-114355238D01*
X74172380Y-114355238D02*
X73219999Y-114355238D01*
X84458095Y-119500000D02*
X84172381Y-119595238D01*
X84172381Y-119595238D02*
X83696190Y-119595238D01*
X83696190Y-119595238D02*
X83505714Y-119500000D01*
X83505714Y-119500000D02*
X83410476Y-119404761D01*
X83410476Y-119404761D02*
X83315238Y-119214285D01*
X83315238Y-119214285D02*
X83315238Y-119023809D01*
X83315238Y-119023809D02*
X83410476Y-118833333D01*
X83410476Y-118833333D02*
X83505714Y-118738095D01*
X83505714Y-118738095D02*
X83696190Y-118642857D01*
X83696190Y-118642857D02*
X84077143Y-118547619D01*
X84077143Y-118547619D02*
X84267619Y-118452380D01*
X84267619Y-118452380D02*
X84362857Y-118357142D01*
X84362857Y-118357142D02*
X84458095Y-118166666D01*
X84458095Y-118166666D02*
X84458095Y-117976190D01*
X84458095Y-117976190D02*
X84362857Y-117785714D01*
X84362857Y-117785714D02*
X84267619Y-117690476D01*
X84267619Y-117690476D02*
X84077143Y-117595238D01*
X84077143Y-117595238D02*
X83600952Y-117595238D01*
X83600952Y-117595238D02*
X83315238Y-117690476D01*
X82458095Y-119595238D02*
X82458095Y-117595238D01*
X82458095Y-117595238D02*
X81696190Y-117595238D01*
X81696190Y-117595238D02*
X81505714Y-117690476D01*
X81505714Y-117690476D02*
X81410476Y-117785714D01*
X81410476Y-117785714D02*
X81315238Y-117976190D01*
X81315238Y-117976190D02*
X81315238Y-118261904D01*
X81315238Y-118261904D02*
X81410476Y-118452380D01*
X81410476Y-118452380D02*
X81505714Y-118547619D01*
X81505714Y-118547619D02*
X81696190Y-118642857D01*
X81696190Y-118642857D02*
X82458095Y-118642857D01*
X79315238Y-119595238D02*
X79981905Y-118642857D01*
X80458095Y-119595238D02*
X80458095Y-117595238D01*
X80458095Y-117595238D02*
X79696190Y-117595238D01*
X79696190Y-117595238D02*
X79505714Y-117690476D01*
X79505714Y-117690476D02*
X79410476Y-117785714D01*
X79410476Y-117785714D02*
X79315238Y-117976190D01*
X79315238Y-117976190D02*
X79315238Y-118261904D01*
X79315238Y-118261904D02*
X79410476Y-118452380D01*
X79410476Y-118452380D02*
X79505714Y-118547619D01*
X79505714Y-118547619D02*
X79696190Y-118642857D01*
X79696190Y-118642857D02*
X80458095Y-118642857D01*
X77029523Y-117785714D02*
X76934285Y-117690476D01*
X76934285Y-117690476D02*
X76743809Y-117595238D01*
X76743809Y-117595238D02*
X76267618Y-117595238D01*
X76267618Y-117595238D02*
X76077142Y-117690476D01*
X76077142Y-117690476D02*
X75981904Y-117785714D01*
X75981904Y-117785714D02*
X75886666Y-117976190D01*
X75886666Y-117976190D02*
X75886666Y-118166666D01*
X75886666Y-118166666D02*
X75981904Y-118452380D01*
X75981904Y-118452380D02*
X77124761Y-119595238D01*
X77124761Y-119595238D02*
X75886666Y-119595238D01*
X75219999Y-117595238D02*
X73981904Y-117595238D01*
X73981904Y-117595238D02*
X74648571Y-118357142D01*
X74648571Y-118357142D02*
X74362856Y-118357142D01*
X74362856Y-118357142D02*
X74172380Y-118452380D01*
X74172380Y-118452380D02*
X74077142Y-118547619D01*
X74077142Y-118547619D02*
X73981904Y-118738095D01*
X73981904Y-118738095D02*
X73981904Y-119214285D01*
X73981904Y-119214285D02*
X74077142Y-119404761D01*
X74077142Y-119404761D02*
X74172380Y-119500000D01*
X74172380Y-119500000D02*
X74362856Y-119595238D01*
X74362856Y-119595238D02*
X74934285Y-119595238D01*
X74934285Y-119595238D02*
X75124761Y-119500000D01*
X75124761Y-119500000D02*
X75219999Y-119404761D01*
M02*
