%TF.GenerationSoftware,KiCad,Pcbnew,7.0.2-0*%
%TF.CreationDate,2023-05-07T21:32:26-07:00*%
%TF.ProjectId,VR-better,56522d62-6574-4746-9572-2e6b69636164,rev?*%
%TF.SameCoordinates,Original*%
%TF.FileFunction,Legend,Top*%
%TF.FilePolarity,Positive*%
%FSLAX46Y46*%
G04 Gerber Fmt 4.6, Leading zero omitted, Abs format (unit mm)*
G04 Created by KiCad (PCBNEW 7.0.2-0) date 2023-05-07 21:32:26*
%MOMM*%
%LPD*%
G01*
G04 APERTURE LIST*
%ADD10C,0.150000*%
%ADD11C,0.120000*%
G04 APERTURE END LIST*
D10*
%TO.C,BJT0*%
X90718809Y-131736666D02*
X90766428Y-131593809D01*
X90766428Y-131593809D02*
X90814047Y-131546190D01*
X90814047Y-131546190D02*
X90909285Y-131498571D01*
X90909285Y-131498571D02*
X91052142Y-131498571D01*
X91052142Y-131498571D02*
X91147380Y-131546190D01*
X91147380Y-131546190D02*
X91195000Y-131593809D01*
X91195000Y-131593809D02*
X91242619Y-131689047D01*
X91242619Y-131689047D02*
X91242619Y-132069999D01*
X91242619Y-132069999D02*
X90242619Y-132069999D01*
X90242619Y-132069999D02*
X90242619Y-131736666D01*
X90242619Y-131736666D02*
X90290238Y-131641428D01*
X90290238Y-131641428D02*
X90337857Y-131593809D01*
X90337857Y-131593809D02*
X90433095Y-131546190D01*
X90433095Y-131546190D02*
X90528333Y-131546190D01*
X90528333Y-131546190D02*
X90623571Y-131593809D01*
X90623571Y-131593809D02*
X90671190Y-131641428D01*
X90671190Y-131641428D02*
X90718809Y-131736666D01*
X90718809Y-131736666D02*
X90718809Y-132069999D01*
X90242619Y-130784285D02*
X90956904Y-130784285D01*
X90956904Y-130784285D02*
X91099761Y-130831904D01*
X91099761Y-130831904D02*
X91195000Y-130927142D01*
X91195000Y-130927142D02*
X91242619Y-131069999D01*
X91242619Y-131069999D02*
X91242619Y-131165237D01*
X90242619Y-130450951D02*
X90242619Y-129879523D01*
X91242619Y-130165237D02*
X90242619Y-130165237D01*
X90242619Y-129355713D02*
X90242619Y-129260475D01*
X90242619Y-129260475D02*
X90290238Y-129165237D01*
X90290238Y-129165237D02*
X90337857Y-129117618D01*
X90337857Y-129117618D02*
X90433095Y-129069999D01*
X90433095Y-129069999D02*
X90623571Y-129022380D01*
X90623571Y-129022380D02*
X90861666Y-129022380D01*
X90861666Y-129022380D02*
X91052142Y-129069999D01*
X91052142Y-129069999D02*
X91147380Y-129117618D01*
X91147380Y-129117618D02*
X91195000Y-129165237D01*
X91195000Y-129165237D02*
X91242619Y-129260475D01*
X91242619Y-129260475D02*
X91242619Y-129355713D01*
X91242619Y-129355713D02*
X91195000Y-129450951D01*
X91195000Y-129450951D02*
X91147380Y-129498570D01*
X91147380Y-129498570D02*
X91052142Y-129546189D01*
X91052142Y-129546189D02*
X90861666Y-129593808D01*
X90861666Y-129593808D02*
X90623571Y-129593808D01*
X90623571Y-129593808D02*
X90433095Y-129546189D01*
X90433095Y-129546189D02*
X90337857Y-129498570D01*
X90337857Y-129498570D02*
X90290238Y-129450951D01*
X90290238Y-129450951D02*
X90242619Y-129355713D01*
%TO.C,C0*%
X70344380Y-131027466D02*
X70392000Y-131075085D01*
X70392000Y-131075085D02*
X70439619Y-131217942D01*
X70439619Y-131217942D02*
X70439619Y-131313180D01*
X70439619Y-131313180D02*
X70392000Y-131456037D01*
X70392000Y-131456037D02*
X70296761Y-131551275D01*
X70296761Y-131551275D02*
X70201523Y-131598894D01*
X70201523Y-131598894D02*
X70011047Y-131646513D01*
X70011047Y-131646513D02*
X69868190Y-131646513D01*
X69868190Y-131646513D02*
X69677714Y-131598894D01*
X69677714Y-131598894D02*
X69582476Y-131551275D01*
X69582476Y-131551275D02*
X69487238Y-131456037D01*
X69487238Y-131456037D02*
X69439619Y-131313180D01*
X69439619Y-131313180D02*
X69439619Y-131217942D01*
X69439619Y-131217942D02*
X69487238Y-131075085D01*
X69487238Y-131075085D02*
X69534857Y-131027466D01*
X69439619Y-130408418D02*
X69439619Y-130313180D01*
X69439619Y-130313180D02*
X69487238Y-130217942D01*
X69487238Y-130217942D02*
X69534857Y-130170323D01*
X69534857Y-130170323D02*
X69630095Y-130122704D01*
X69630095Y-130122704D02*
X69820571Y-130075085D01*
X69820571Y-130075085D02*
X70058666Y-130075085D01*
X70058666Y-130075085D02*
X70249142Y-130122704D01*
X70249142Y-130122704D02*
X70344380Y-130170323D01*
X70344380Y-130170323D02*
X70392000Y-130217942D01*
X70392000Y-130217942D02*
X70439619Y-130313180D01*
X70439619Y-130313180D02*
X70439619Y-130408418D01*
X70439619Y-130408418D02*
X70392000Y-130503656D01*
X70392000Y-130503656D02*
X70344380Y-130551275D01*
X70344380Y-130551275D02*
X70249142Y-130598894D01*
X70249142Y-130598894D02*
X70058666Y-130646513D01*
X70058666Y-130646513D02*
X69820571Y-130646513D01*
X69820571Y-130646513D02*
X69630095Y-130598894D01*
X69630095Y-130598894D02*
X69534857Y-130551275D01*
X69534857Y-130551275D02*
X69487238Y-130503656D01*
X69487238Y-130503656D02*
X69439619Y-130408418D01*
%TO.C,DOWN(3)*%
X53462619Y-146098809D02*
X52462619Y-146098809D01*
X52462619Y-146098809D02*
X52462619Y-145860714D01*
X52462619Y-145860714D02*
X52510238Y-145717857D01*
X52510238Y-145717857D02*
X52605476Y-145622619D01*
X52605476Y-145622619D02*
X52700714Y-145575000D01*
X52700714Y-145575000D02*
X52891190Y-145527381D01*
X52891190Y-145527381D02*
X53034047Y-145527381D01*
X53034047Y-145527381D02*
X53224523Y-145575000D01*
X53224523Y-145575000D02*
X53319761Y-145622619D01*
X53319761Y-145622619D02*
X53415000Y-145717857D01*
X53415000Y-145717857D02*
X53462619Y-145860714D01*
X53462619Y-145860714D02*
X53462619Y-146098809D01*
X52462619Y-144908333D02*
X52462619Y-144717857D01*
X52462619Y-144717857D02*
X52510238Y-144622619D01*
X52510238Y-144622619D02*
X52605476Y-144527381D01*
X52605476Y-144527381D02*
X52795952Y-144479762D01*
X52795952Y-144479762D02*
X53129285Y-144479762D01*
X53129285Y-144479762D02*
X53319761Y-144527381D01*
X53319761Y-144527381D02*
X53415000Y-144622619D01*
X53415000Y-144622619D02*
X53462619Y-144717857D01*
X53462619Y-144717857D02*
X53462619Y-144908333D01*
X53462619Y-144908333D02*
X53415000Y-145003571D01*
X53415000Y-145003571D02*
X53319761Y-145098809D01*
X53319761Y-145098809D02*
X53129285Y-145146428D01*
X53129285Y-145146428D02*
X52795952Y-145146428D01*
X52795952Y-145146428D02*
X52605476Y-145098809D01*
X52605476Y-145098809D02*
X52510238Y-145003571D01*
X52510238Y-145003571D02*
X52462619Y-144908333D01*
X52462619Y-144146428D02*
X53462619Y-143908333D01*
X53462619Y-143908333D02*
X52748333Y-143717857D01*
X52748333Y-143717857D02*
X53462619Y-143527381D01*
X53462619Y-143527381D02*
X52462619Y-143289286D01*
X53462619Y-142908333D02*
X52462619Y-142908333D01*
X52462619Y-142908333D02*
X53462619Y-142336905D01*
X53462619Y-142336905D02*
X52462619Y-142336905D01*
X53843571Y-141575000D02*
X53795952Y-141622619D01*
X53795952Y-141622619D02*
X53653095Y-141717857D01*
X53653095Y-141717857D02*
X53557857Y-141765476D01*
X53557857Y-141765476D02*
X53415000Y-141813095D01*
X53415000Y-141813095D02*
X53176904Y-141860714D01*
X53176904Y-141860714D02*
X52986428Y-141860714D01*
X52986428Y-141860714D02*
X52748333Y-141813095D01*
X52748333Y-141813095D02*
X52605476Y-141765476D01*
X52605476Y-141765476D02*
X52510238Y-141717857D01*
X52510238Y-141717857D02*
X52367380Y-141622619D01*
X52367380Y-141622619D02*
X52319761Y-141575000D01*
X52462619Y-141289285D02*
X52462619Y-140670238D01*
X52462619Y-140670238D02*
X52843571Y-141003571D01*
X52843571Y-141003571D02*
X52843571Y-140860714D01*
X52843571Y-140860714D02*
X52891190Y-140765476D01*
X52891190Y-140765476D02*
X52938809Y-140717857D01*
X52938809Y-140717857D02*
X53034047Y-140670238D01*
X53034047Y-140670238D02*
X53272142Y-140670238D01*
X53272142Y-140670238D02*
X53367380Y-140717857D01*
X53367380Y-140717857D02*
X53415000Y-140765476D01*
X53415000Y-140765476D02*
X53462619Y-140860714D01*
X53462619Y-140860714D02*
X53462619Y-141146428D01*
X53462619Y-141146428D02*
X53415000Y-141241666D01*
X53415000Y-141241666D02*
X53367380Y-141289285D01*
X53843571Y-140336904D02*
X53795952Y-140289285D01*
X53795952Y-140289285D02*
X53653095Y-140194047D01*
X53653095Y-140194047D02*
X53557857Y-140146428D01*
X53557857Y-140146428D02*
X53415000Y-140098809D01*
X53415000Y-140098809D02*
X53176904Y-140051190D01*
X53176904Y-140051190D02*
X52986428Y-140051190D01*
X52986428Y-140051190D02*
X52748333Y-140098809D01*
X52748333Y-140098809D02*
X52605476Y-140146428D01*
X52605476Y-140146428D02*
X52510238Y-140194047D01*
X52510238Y-140194047D02*
X52367380Y-140289285D01*
X52367380Y-140289285D02*
X52319761Y-140336904D01*
%TO.C,BJT2*%
X90718809Y-144006666D02*
X90766428Y-143863809D01*
X90766428Y-143863809D02*
X90814047Y-143816190D01*
X90814047Y-143816190D02*
X90909285Y-143768571D01*
X90909285Y-143768571D02*
X91052142Y-143768571D01*
X91052142Y-143768571D02*
X91147380Y-143816190D01*
X91147380Y-143816190D02*
X91195000Y-143863809D01*
X91195000Y-143863809D02*
X91242619Y-143959047D01*
X91242619Y-143959047D02*
X91242619Y-144339999D01*
X91242619Y-144339999D02*
X90242619Y-144339999D01*
X90242619Y-144339999D02*
X90242619Y-144006666D01*
X90242619Y-144006666D02*
X90290238Y-143911428D01*
X90290238Y-143911428D02*
X90337857Y-143863809D01*
X90337857Y-143863809D02*
X90433095Y-143816190D01*
X90433095Y-143816190D02*
X90528333Y-143816190D01*
X90528333Y-143816190D02*
X90623571Y-143863809D01*
X90623571Y-143863809D02*
X90671190Y-143911428D01*
X90671190Y-143911428D02*
X90718809Y-144006666D01*
X90718809Y-144006666D02*
X90718809Y-144339999D01*
X90242619Y-143054285D02*
X90956904Y-143054285D01*
X90956904Y-143054285D02*
X91099761Y-143101904D01*
X91099761Y-143101904D02*
X91195000Y-143197142D01*
X91195000Y-143197142D02*
X91242619Y-143339999D01*
X91242619Y-143339999D02*
X91242619Y-143435237D01*
X90242619Y-142720951D02*
X90242619Y-142149523D01*
X91242619Y-142435237D02*
X90242619Y-142435237D01*
X90337857Y-141863808D02*
X90290238Y-141816189D01*
X90290238Y-141816189D02*
X90242619Y-141720951D01*
X90242619Y-141720951D02*
X90242619Y-141482856D01*
X90242619Y-141482856D02*
X90290238Y-141387618D01*
X90290238Y-141387618D02*
X90337857Y-141339999D01*
X90337857Y-141339999D02*
X90433095Y-141292380D01*
X90433095Y-141292380D02*
X90528333Y-141292380D01*
X90528333Y-141292380D02*
X90671190Y-141339999D01*
X90671190Y-141339999D02*
X91242619Y-141911427D01*
X91242619Y-141911427D02*
X91242619Y-141292380D01*
%TO.C,BJT3*%
X90718809Y-149736666D02*
X90766428Y-149593809D01*
X90766428Y-149593809D02*
X90814047Y-149546190D01*
X90814047Y-149546190D02*
X90909285Y-149498571D01*
X90909285Y-149498571D02*
X91052142Y-149498571D01*
X91052142Y-149498571D02*
X91147380Y-149546190D01*
X91147380Y-149546190D02*
X91195000Y-149593809D01*
X91195000Y-149593809D02*
X91242619Y-149689047D01*
X91242619Y-149689047D02*
X91242619Y-150069999D01*
X91242619Y-150069999D02*
X90242619Y-150069999D01*
X90242619Y-150069999D02*
X90242619Y-149736666D01*
X90242619Y-149736666D02*
X90290238Y-149641428D01*
X90290238Y-149641428D02*
X90337857Y-149593809D01*
X90337857Y-149593809D02*
X90433095Y-149546190D01*
X90433095Y-149546190D02*
X90528333Y-149546190D01*
X90528333Y-149546190D02*
X90623571Y-149593809D01*
X90623571Y-149593809D02*
X90671190Y-149641428D01*
X90671190Y-149641428D02*
X90718809Y-149736666D01*
X90718809Y-149736666D02*
X90718809Y-150069999D01*
X90242619Y-148784285D02*
X90956904Y-148784285D01*
X90956904Y-148784285D02*
X91099761Y-148831904D01*
X91099761Y-148831904D02*
X91195000Y-148927142D01*
X91195000Y-148927142D02*
X91242619Y-149069999D01*
X91242619Y-149069999D02*
X91242619Y-149165237D01*
X90242619Y-148450951D02*
X90242619Y-147879523D01*
X91242619Y-148165237D02*
X90242619Y-148165237D01*
X90242619Y-147641427D02*
X90242619Y-147022380D01*
X90242619Y-147022380D02*
X90623571Y-147355713D01*
X90623571Y-147355713D02*
X90623571Y-147212856D01*
X90623571Y-147212856D02*
X90671190Y-147117618D01*
X90671190Y-147117618D02*
X90718809Y-147069999D01*
X90718809Y-147069999D02*
X90814047Y-147022380D01*
X90814047Y-147022380D02*
X91052142Y-147022380D01*
X91052142Y-147022380D02*
X91147380Y-147069999D01*
X91147380Y-147069999D02*
X91195000Y-147117618D01*
X91195000Y-147117618D02*
X91242619Y-147212856D01*
X91242619Y-147212856D02*
X91242619Y-147498570D01*
X91242619Y-147498570D02*
X91195000Y-147593808D01*
X91195000Y-147593808D02*
X91147380Y-147641427D01*
%TO.C,LEFT(0)*%
X53502619Y-109270238D02*
X53502619Y-109746428D01*
X53502619Y-109746428D02*
X52502619Y-109746428D01*
X52978809Y-108936904D02*
X52978809Y-108603571D01*
X53502619Y-108460714D02*
X53502619Y-108936904D01*
X53502619Y-108936904D02*
X52502619Y-108936904D01*
X52502619Y-108936904D02*
X52502619Y-108460714D01*
X52978809Y-107698809D02*
X52978809Y-108032142D01*
X53502619Y-108032142D02*
X52502619Y-108032142D01*
X52502619Y-108032142D02*
X52502619Y-107555952D01*
X52502619Y-107317856D02*
X52502619Y-106746428D01*
X53502619Y-107032142D02*
X52502619Y-107032142D01*
X53883571Y-106127380D02*
X53835952Y-106174999D01*
X53835952Y-106174999D02*
X53693095Y-106270237D01*
X53693095Y-106270237D02*
X53597857Y-106317856D01*
X53597857Y-106317856D02*
X53455000Y-106365475D01*
X53455000Y-106365475D02*
X53216904Y-106413094D01*
X53216904Y-106413094D02*
X53026428Y-106413094D01*
X53026428Y-106413094D02*
X52788333Y-106365475D01*
X52788333Y-106365475D02*
X52645476Y-106317856D01*
X52645476Y-106317856D02*
X52550238Y-106270237D01*
X52550238Y-106270237D02*
X52407380Y-106174999D01*
X52407380Y-106174999D02*
X52359761Y-106127380D01*
X52502619Y-105555951D02*
X52502619Y-105460713D01*
X52502619Y-105460713D02*
X52550238Y-105365475D01*
X52550238Y-105365475D02*
X52597857Y-105317856D01*
X52597857Y-105317856D02*
X52693095Y-105270237D01*
X52693095Y-105270237D02*
X52883571Y-105222618D01*
X52883571Y-105222618D02*
X53121666Y-105222618D01*
X53121666Y-105222618D02*
X53312142Y-105270237D01*
X53312142Y-105270237D02*
X53407380Y-105317856D01*
X53407380Y-105317856D02*
X53455000Y-105365475D01*
X53455000Y-105365475D02*
X53502619Y-105460713D01*
X53502619Y-105460713D02*
X53502619Y-105555951D01*
X53502619Y-105555951D02*
X53455000Y-105651189D01*
X53455000Y-105651189D02*
X53407380Y-105698808D01*
X53407380Y-105698808D02*
X53312142Y-105746427D01*
X53312142Y-105746427D02*
X53121666Y-105794046D01*
X53121666Y-105794046D02*
X52883571Y-105794046D01*
X52883571Y-105794046D02*
X52693095Y-105746427D01*
X52693095Y-105746427D02*
X52597857Y-105698808D01*
X52597857Y-105698808D02*
X52550238Y-105651189D01*
X52550238Y-105651189D02*
X52502619Y-105555951D01*
X53883571Y-104889284D02*
X53835952Y-104841665D01*
X53835952Y-104841665D02*
X53693095Y-104746427D01*
X53693095Y-104746427D02*
X53597857Y-104698808D01*
X53597857Y-104698808D02*
X53455000Y-104651189D01*
X53455000Y-104651189D02*
X53216904Y-104603570D01*
X53216904Y-104603570D02*
X53026428Y-104603570D01*
X53026428Y-104603570D02*
X52788333Y-104651189D01*
X52788333Y-104651189D02*
X52645476Y-104698808D01*
X52645476Y-104698808D02*
X52550238Y-104746427D01*
X52550238Y-104746427D02*
X52407380Y-104841665D01*
X52407380Y-104841665D02*
X52359761Y-104889284D01*
%TO.C,RIGHT(1)*%
X53462619Y-120951190D02*
X52986428Y-121284523D01*
X53462619Y-121522618D02*
X52462619Y-121522618D01*
X52462619Y-121522618D02*
X52462619Y-121141666D01*
X52462619Y-121141666D02*
X52510238Y-121046428D01*
X52510238Y-121046428D02*
X52557857Y-120998809D01*
X52557857Y-120998809D02*
X52653095Y-120951190D01*
X52653095Y-120951190D02*
X52795952Y-120951190D01*
X52795952Y-120951190D02*
X52891190Y-120998809D01*
X52891190Y-120998809D02*
X52938809Y-121046428D01*
X52938809Y-121046428D02*
X52986428Y-121141666D01*
X52986428Y-121141666D02*
X52986428Y-121522618D01*
X53462619Y-120522618D02*
X52462619Y-120522618D01*
X52510238Y-119522619D02*
X52462619Y-119617857D01*
X52462619Y-119617857D02*
X52462619Y-119760714D01*
X52462619Y-119760714D02*
X52510238Y-119903571D01*
X52510238Y-119903571D02*
X52605476Y-119998809D01*
X52605476Y-119998809D02*
X52700714Y-120046428D01*
X52700714Y-120046428D02*
X52891190Y-120094047D01*
X52891190Y-120094047D02*
X53034047Y-120094047D01*
X53034047Y-120094047D02*
X53224523Y-120046428D01*
X53224523Y-120046428D02*
X53319761Y-119998809D01*
X53319761Y-119998809D02*
X53415000Y-119903571D01*
X53415000Y-119903571D02*
X53462619Y-119760714D01*
X53462619Y-119760714D02*
X53462619Y-119665476D01*
X53462619Y-119665476D02*
X53415000Y-119522619D01*
X53415000Y-119522619D02*
X53367380Y-119475000D01*
X53367380Y-119475000D02*
X53034047Y-119475000D01*
X53034047Y-119475000D02*
X53034047Y-119665476D01*
X53462619Y-119046428D02*
X52462619Y-119046428D01*
X52938809Y-119046428D02*
X52938809Y-118475000D01*
X53462619Y-118475000D02*
X52462619Y-118475000D01*
X52462619Y-118141666D02*
X52462619Y-117570238D01*
X53462619Y-117855952D02*
X52462619Y-117855952D01*
X53843571Y-116951190D02*
X53795952Y-116998809D01*
X53795952Y-116998809D02*
X53653095Y-117094047D01*
X53653095Y-117094047D02*
X53557857Y-117141666D01*
X53557857Y-117141666D02*
X53415000Y-117189285D01*
X53415000Y-117189285D02*
X53176904Y-117236904D01*
X53176904Y-117236904D02*
X52986428Y-117236904D01*
X52986428Y-117236904D02*
X52748333Y-117189285D01*
X52748333Y-117189285D02*
X52605476Y-117141666D01*
X52605476Y-117141666D02*
X52510238Y-117094047D01*
X52510238Y-117094047D02*
X52367380Y-116998809D01*
X52367380Y-116998809D02*
X52319761Y-116951190D01*
X53462619Y-116046428D02*
X53462619Y-116617856D01*
X53462619Y-116332142D02*
X52462619Y-116332142D01*
X52462619Y-116332142D02*
X52605476Y-116427380D01*
X52605476Y-116427380D02*
X52700714Y-116522618D01*
X52700714Y-116522618D02*
X52748333Y-116617856D01*
X53843571Y-115713094D02*
X53795952Y-115665475D01*
X53795952Y-115665475D02*
X53653095Y-115570237D01*
X53653095Y-115570237D02*
X53557857Y-115522618D01*
X53557857Y-115522618D02*
X53415000Y-115474999D01*
X53415000Y-115474999D02*
X53176904Y-115427380D01*
X53176904Y-115427380D02*
X52986428Y-115427380D01*
X52986428Y-115427380D02*
X52748333Y-115474999D01*
X52748333Y-115474999D02*
X52605476Y-115522618D01*
X52605476Y-115522618D02*
X52510238Y-115570237D01*
X52510238Y-115570237D02*
X52367380Y-115665475D01*
X52367380Y-115665475D02*
X52319761Y-115713094D01*
%TO.C,C3*%
X70337380Y-148916666D02*
X70385000Y-148964285D01*
X70385000Y-148964285D02*
X70432619Y-149107142D01*
X70432619Y-149107142D02*
X70432619Y-149202380D01*
X70432619Y-149202380D02*
X70385000Y-149345237D01*
X70385000Y-149345237D02*
X70289761Y-149440475D01*
X70289761Y-149440475D02*
X70194523Y-149488094D01*
X70194523Y-149488094D02*
X70004047Y-149535713D01*
X70004047Y-149535713D02*
X69861190Y-149535713D01*
X69861190Y-149535713D02*
X69670714Y-149488094D01*
X69670714Y-149488094D02*
X69575476Y-149440475D01*
X69575476Y-149440475D02*
X69480238Y-149345237D01*
X69480238Y-149345237D02*
X69432619Y-149202380D01*
X69432619Y-149202380D02*
X69432619Y-149107142D01*
X69432619Y-149107142D02*
X69480238Y-148964285D01*
X69480238Y-148964285D02*
X69527857Y-148916666D01*
X69432619Y-148583332D02*
X69432619Y-147964285D01*
X69432619Y-147964285D02*
X69813571Y-148297618D01*
X69813571Y-148297618D02*
X69813571Y-148154761D01*
X69813571Y-148154761D02*
X69861190Y-148059523D01*
X69861190Y-148059523D02*
X69908809Y-148011904D01*
X69908809Y-148011904D02*
X70004047Y-147964285D01*
X70004047Y-147964285D02*
X70242142Y-147964285D01*
X70242142Y-147964285D02*
X70337380Y-148011904D01*
X70337380Y-148011904D02*
X70385000Y-148059523D01*
X70385000Y-148059523D02*
X70432619Y-148154761D01*
X70432619Y-148154761D02*
X70432619Y-148440475D01*
X70432619Y-148440475D02*
X70385000Y-148535713D01*
X70385000Y-148535713D02*
X70337380Y-148583332D01*
%TO.C,C2*%
X70337380Y-142916666D02*
X70385000Y-142964285D01*
X70385000Y-142964285D02*
X70432619Y-143107142D01*
X70432619Y-143107142D02*
X70432619Y-143202380D01*
X70432619Y-143202380D02*
X70385000Y-143345237D01*
X70385000Y-143345237D02*
X70289761Y-143440475D01*
X70289761Y-143440475D02*
X70194523Y-143488094D01*
X70194523Y-143488094D02*
X70004047Y-143535713D01*
X70004047Y-143535713D02*
X69861190Y-143535713D01*
X69861190Y-143535713D02*
X69670714Y-143488094D01*
X69670714Y-143488094D02*
X69575476Y-143440475D01*
X69575476Y-143440475D02*
X69480238Y-143345237D01*
X69480238Y-143345237D02*
X69432619Y-143202380D01*
X69432619Y-143202380D02*
X69432619Y-143107142D01*
X69432619Y-143107142D02*
X69480238Y-142964285D01*
X69480238Y-142964285D02*
X69527857Y-142916666D01*
X69527857Y-142535713D02*
X69480238Y-142488094D01*
X69480238Y-142488094D02*
X69432619Y-142392856D01*
X69432619Y-142392856D02*
X69432619Y-142154761D01*
X69432619Y-142154761D02*
X69480238Y-142059523D01*
X69480238Y-142059523D02*
X69527857Y-142011904D01*
X69527857Y-142011904D02*
X69623095Y-141964285D01*
X69623095Y-141964285D02*
X69718333Y-141964285D01*
X69718333Y-141964285D02*
X69861190Y-142011904D01*
X69861190Y-142011904D02*
X70432619Y-142583332D01*
X70432619Y-142583332D02*
X70432619Y-141964285D01*
%TO.C,A1*%
X100860314Y-103656504D02*
X101336504Y-103656504D01*
X100765076Y-103942219D02*
X101098409Y-102942219D01*
X101098409Y-102942219D02*
X101431742Y-103942219D01*
X102288885Y-103942219D02*
X101717457Y-103942219D01*
X102003171Y-103942219D02*
X102003171Y-102942219D01*
X102003171Y-102942219D02*
X101907933Y-103085076D01*
X101907933Y-103085076D02*
X101812695Y-103180314D01*
X101812695Y-103180314D02*
X101717457Y-103227933D01*
X100312695Y-143582219D02*
X100312695Y-144391742D01*
X100312695Y-144391742D02*
X100360314Y-144486980D01*
X100360314Y-144486980D02*
X100407933Y-144534600D01*
X100407933Y-144534600D02*
X100503171Y-144582219D01*
X100503171Y-144582219D02*
X100693647Y-144582219D01*
X100693647Y-144582219D02*
X100788885Y-144534600D01*
X100788885Y-144534600D02*
X100836504Y-144486980D01*
X100836504Y-144486980D02*
X100884123Y-144391742D01*
X100884123Y-144391742D02*
X100884123Y-143582219D01*
X101312695Y-144534600D02*
X101455552Y-144582219D01*
X101455552Y-144582219D02*
X101693647Y-144582219D01*
X101693647Y-144582219D02*
X101788885Y-144534600D01*
X101788885Y-144534600D02*
X101836504Y-144486980D01*
X101836504Y-144486980D02*
X101884123Y-144391742D01*
X101884123Y-144391742D02*
X101884123Y-144296504D01*
X101884123Y-144296504D02*
X101836504Y-144201266D01*
X101836504Y-144201266D02*
X101788885Y-144153647D01*
X101788885Y-144153647D02*
X101693647Y-144106028D01*
X101693647Y-144106028D02*
X101503171Y-144058409D01*
X101503171Y-144058409D02*
X101407933Y-144010790D01*
X101407933Y-144010790D02*
X101360314Y-143963171D01*
X101360314Y-143963171D02*
X101312695Y-143867933D01*
X101312695Y-143867933D02*
X101312695Y-143772695D01*
X101312695Y-143772695D02*
X101360314Y-143677457D01*
X101360314Y-143677457D02*
X101407933Y-143629838D01*
X101407933Y-143629838D02*
X101503171Y-143582219D01*
X101503171Y-143582219D02*
X101741266Y-143582219D01*
X101741266Y-143582219D02*
X101884123Y-143629838D01*
X102646028Y-144058409D02*
X102788885Y-144106028D01*
X102788885Y-144106028D02*
X102836504Y-144153647D01*
X102836504Y-144153647D02*
X102884123Y-144248885D01*
X102884123Y-144248885D02*
X102884123Y-144391742D01*
X102884123Y-144391742D02*
X102836504Y-144486980D01*
X102836504Y-144486980D02*
X102788885Y-144534600D01*
X102788885Y-144534600D02*
X102693647Y-144582219D01*
X102693647Y-144582219D02*
X102312695Y-144582219D01*
X102312695Y-144582219D02*
X102312695Y-143582219D01*
X102312695Y-143582219D02*
X102646028Y-143582219D01*
X102646028Y-143582219D02*
X102741266Y-143629838D01*
X102741266Y-143629838D02*
X102788885Y-143677457D01*
X102788885Y-143677457D02*
X102836504Y-143772695D01*
X102836504Y-143772695D02*
X102836504Y-143867933D01*
X102836504Y-143867933D02*
X102788885Y-143963171D01*
X102788885Y-143963171D02*
X102741266Y-144010790D01*
X102741266Y-144010790D02*
X102646028Y-144058409D01*
X102646028Y-144058409D02*
X102312695Y-144058409D01*
%TO.C,UP(2)*%
X52462619Y-132703571D02*
X53272142Y-132703571D01*
X53272142Y-132703571D02*
X53367380Y-132655952D01*
X53367380Y-132655952D02*
X53415000Y-132608333D01*
X53415000Y-132608333D02*
X53462619Y-132513095D01*
X53462619Y-132513095D02*
X53462619Y-132322619D01*
X53462619Y-132322619D02*
X53415000Y-132227381D01*
X53415000Y-132227381D02*
X53367380Y-132179762D01*
X53367380Y-132179762D02*
X53272142Y-132132143D01*
X53272142Y-132132143D02*
X52462619Y-132132143D01*
X53462619Y-131655952D02*
X52462619Y-131655952D01*
X52462619Y-131655952D02*
X52462619Y-131275000D01*
X52462619Y-131275000D02*
X52510238Y-131179762D01*
X52510238Y-131179762D02*
X52557857Y-131132143D01*
X52557857Y-131132143D02*
X52653095Y-131084524D01*
X52653095Y-131084524D02*
X52795952Y-131084524D01*
X52795952Y-131084524D02*
X52891190Y-131132143D01*
X52891190Y-131132143D02*
X52938809Y-131179762D01*
X52938809Y-131179762D02*
X52986428Y-131275000D01*
X52986428Y-131275000D02*
X52986428Y-131655952D01*
X53843571Y-130370238D02*
X53795952Y-130417857D01*
X53795952Y-130417857D02*
X53653095Y-130513095D01*
X53653095Y-130513095D02*
X53557857Y-130560714D01*
X53557857Y-130560714D02*
X53415000Y-130608333D01*
X53415000Y-130608333D02*
X53176904Y-130655952D01*
X53176904Y-130655952D02*
X52986428Y-130655952D01*
X52986428Y-130655952D02*
X52748333Y-130608333D01*
X52748333Y-130608333D02*
X52605476Y-130560714D01*
X52605476Y-130560714D02*
X52510238Y-130513095D01*
X52510238Y-130513095D02*
X52367380Y-130417857D01*
X52367380Y-130417857D02*
X52319761Y-130370238D01*
X52557857Y-130036904D02*
X52510238Y-129989285D01*
X52510238Y-129989285D02*
X52462619Y-129894047D01*
X52462619Y-129894047D02*
X52462619Y-129655952D01*
X52462619Y-129655952D02*
X52510238Y-129560714D01*
X52510238Y-129560714D02*
X52557857Y-129513095D01*
X52557857Y-129513095D02*
X52653095Y-129465476D01*
X52653095Y-129465476D02*
X52748333Y-129465476D01*
X52748333Y-129465476D02*
X52891190Y-129513095D01*
X52891190Y-129513095D02*
X53462619Y-130084523D01*
X53462619Y-130084523D02*
X53462619Y-129465476D01*
X53843571Y-129132142D02*
X53795952Y-129084523D01*
X53795952Y-129084523D02*
X53653095Y-128989285D01*
X53653095Y-128989285D02*
X53557857Y-128941666D01*
X53557857Y-128941666D02*
X53415000Y-128894047D01*
X53415000Y-128894047D02*
X53176904Y-128846428D01*
X53176904Y-128846428D02*
X52986428Y-128846428D01*
X52986428Y-128846428D02*
X52748333Y-128894047D01*
X52748333Y-128894047D02*
X52605476Y-128941666D01*
X52605476Y-128941666D02*
X52510238Y-128989285D01*
X52510238Y-128989285D02*
X52367380Y-129084523D01*
X52367380Y-129084523D02*
X52319761Y-129132142D01*
%TO.C,C1*%
X70337380Y-136916666D02*
X70385000Y-136964285D01*
X70385000Y-136964285D02*
X70432619Y-137107142D01*
X70432619Y-137107142D02*
X70432619Y-137202380D01*
X70432619Y-137202380D02*
X70385000Y-137345237D01*
X70385000Y-137345237D02*
X70289761Y-137440475D01*
X70289761Y-137440475D02*
X70194523Y-137488094D01*
X70194523Y-137488094D02*
X70004047Y-137535713D01*
X70004047Y-137535713D02*
X69861190Y-137535713D01*
X69861190Y-137535713D02*
X69670714Y-137488094D01*
X69670714Y-137488094D02*
X69575476Y-137440475D01*
X69575476Y-137440475D02*
X69480238Y-137345237D01*
X69480238Y-137345237D02*
X69432619Y-137202380D01*
X69432619Y-137202380D02*
X69432619Y-137107142D01*
X69432619Y-137107142D02*
X69480238Y-136964285D01*
X69480238Y-136964285D02*
X69527857Y-136916666D01*
X70432619Y-135964285D02*
X70432619Y-136535713D01*
X70432619Y-136249999D02*
X69432619Y-136249999D01*
X69432619Y-136249999D02*
X69575476Y-136345237D01*
X69575476Y-136345237D02*
X69670714Y-136440475D01*
X69670714Y-136440475D02*
X69718333Y-136535713D01*
%TO.C,BJT1*%
X90718809Y-137736666D02*
X90766428Y-137593809D01*
X90766428Y-137593809D02*
X90814047Y-137546190D01*
X90814047Y-137546190D02*
X90909285Y-137498571D01*
X90909285Y-137498571D02*
X91052142Y-137498571D01*
X91052142Y-137498571D02*
X91147380Y-137546190D01*
X91147380Y-137546190D02*
X91195000Y-137593809D01*
X91195000Y-137593809D02*
X91242619Y-137689047D01*
X91242619Y-137689047D02*
X91242619Y-138069999D01*
X91242619Y-138069999D02*
X90242619Y-138069999D01*
X90242619Y-138069999D02*
X90242619Y-137736666D01*
X90242619Y-137736666D02*
X90290238Y-137641428D01*
X90290238Y-137641428D02*
X90337857Y-137593809D01*
X90337857Y-137593809D02*
X90433095Y-137546190D01*
X90433095Y-137546190D02*
X90528333Y-137546190D01*
X90528333Y-137546190D02*
X90623571Y-137593809D01*
X90623571Y-137593809D02*
X90671190Y-137641428D01*
X90671190Y-137641428D02*
X90718809Y-137736666D01*
X90718809Y-137736666D02*
X90718809Y-138069999D01*
X90242619Y-136784285D02*
X90956904Y-136784285D01*
X90956904Y-136784285D02*
X91099761Y-136831904D01*
X91099761Y-136831904D02*
X91195000Y-136927142D01*
X91195000Y-136927142D02*
X91242619Y-137069999D01*
X91242619Y-137069999D02*
X91242619Y-137165237D01*
X90242619Y-136450951D02*
X90242619Y-135879523D01*
X91242619Y-136165237D02*
X90242619Y-136165237D01*
X91242619Y-135022380D02*
X91242619Y-135593808D01*
X91242619Y-135308094D02*
X90242619Y-135308094D01*
X90242619Y-135308094D02*
X90385476Y-135403332D01*
X90385476Y-135403332D02*
X90480714Y-135498570D01*
X90480714Y-135498570D02*
X90528333Y-135593808D01*
D11*
%TO.C,BT1*%
X75370000Y-101290000D02*
X76920000Y-101290000D01*
X75370000Y-104490000D02*
X75370000Y-101290000D01*
X83070000Y-101290000D02*
X81520000Y-101290000D01*
X70870000Y-127190000D02*
X75370000Y-127190000D01*
X70870000Y-106290000D02*
X72670000Y-104490000D01*
X72670000Y-104490000D02*
X75370000Y-104490000D01*
X75370000Y-130390000D02*
X76920000Y-130390000D01*
X83070000Y-130390000D02*
X81520000Y-130390000D01*
X83070000Y-127190000D02*
X83070000Y-130390000D01*
X87570000Y-104490000D02*
X83070000Y-104490000D01*
X74220000Y-102840000D02*
X72220000Y-102840000D01*
X87570000Y-127190000D02*
X83070000Y-127190000D01*
X83070000Y-104490000D02*
X83070000Y-101290000D01*
X87570000Y-104490000D02*
X87570000Y-127190000D01*
X70870000Y-127190000D02*
X70870000Y-106290000D01*
X75370000Y-127190000D02*
X75370000Y-130390000D01*
X73220000Y-103840000D02*
X73220000Y-101840000D01*
%TO.C,BJT0*%
X85370000Y-128770000D02*
X85370000Y-132370000D01*
X89820000Y-130570000D02*
G75*
G03*
X85381522Y-128731522I-2600000J0D01*
G01*
X85381522Y-132408478D02*
G75*
G03*
X89820000Y-130570000I1838478J1838478D01*
G01*
%TO.C,C0*%
X71100000Y-132370000D02*
X71165000Y-132370000D01*
X71100000Y-132370000D02*
X71100000Y-129130000D01*
X73275000Y-132370000D02*
X73340000Y-132370000D01*
X73340000Y-132370000D02*
X73340000Y-129130000D01*
X71100000Y-129130000D02*
X71165000Y-129130000D01*
X73275000Y-129130000D02*
X73340000Y-129130000D01*
%TO.C,C_Pow1*%
X92840000Y-101840000D02*
G75*
G03*
X92840000Y-101840000I-2620000J0D01*
G01*
X92821000Y-101556000D02*
X92821000Y-102124000D01*
X92781000Y-101322000D02*
X92781000Y-102358000D01*
X92741000Y-101163000D02*
X92741000Y-102517000D01*
X92701000Y-101035000D02*
X92701000Y-102645000D01*
X92661000Y-100925000D02*
X92661000Y-102755000D01*
X92621000Y-100829000D02*
X92621000Y-102851000D01*
X92581000Y-100742000D02*
X92581000Y-102938000D01*
X92541000Y-100662000D02*
X92541000Y-103018000D01*
X92501000Y-100589000D02*
X92501000Y-103091000D01*
X92461000Y-100521000D02*
X92461000Y-103159000D01*
X92421000Y-100457000D02*
X92421000Y-103223000D01*
X92381000Y-100397000D02*
X92381000Y-103283000D01*
X92341000Y-100340000D02*
X92341000Y-103340000D01*
X92301000Y-100286000D02*
X92301000Y-103394000D01*
X92261000Y-100235000D02*
X92261000Y-103445000D01*
X92221000Y-102880000D02*
X92221000Y-103493000D01*
X92221000Y-100187000D02*
X92221000Y-100800000D01*
X92181000Y-102880000D02*
X92181000Y-103539000D01*
X92181000Y-100141000D02*
X92181000Y-100800000D01*
X92141000Y-102880000D02*
X92141000Y-103583000D01*
X92141000Y-100097000D02*
X92141000Y-100800000D01*
X92101000Y-102880000D02*
X92101000Y-103625000D01*
X92101000Y-100055000D02*
X92101000Y-100800000D01*
X92061000Y-102880000D02*
X92061000Y-103666000D01*
X92061000Y-100014000D02*
X92061000Y-100800000D01*
X92021000Y-102880000D02*
X92021000Y-103704000D01*
X92021000Y-99976000D02*
X92021000Y-100800000D01*
X91981000Y-102880000D02*
X91981000Y-103741000D01*
X91981000Y-99939000D02*
X91981000Y-100800000D01*
X91941000Y-102880000D02*
X91941000Y-103777000D01*
X91941000Y-99903000D02*
X91941000Y-100800000D01*
X91901000Y-102880000D02*
X91901000Y-103811000D01*
X91901000Y-99869000D02*
X91901000Y-100800000D01*
X91861000Y-102880000D02*
X91861000Y-103844000D01*
X91861000Y-99836000D02*
X91861000Y-100800000D01*
X91821000Y-102880000D02*
X91821000Y-103875000D01*
X91821000Y-99805000D02*
X91821000Y-100800000D01*
X91781000Y-102880000D02*
X91781000Y-103905000D01*
X91781000Y-99775000D02*
X91781000Y-100800000D01*
X91741000Y-102880000D02*
X91741000Y-103935000D01*
X91741000Y-99745000D02*
X91741000Y-100800000D01*
X91701000Y-102880000D02*
X91701000Y-103962000D01*
X91701000Y-99718000D02*
X91701000Y-100800000D01*
X91661000Y-102880000D02*
X91661000Y-103989000D01*
X91661000Y-99691000D02*
X91661000Y-100800000D01*
X91621000Y-102880000D02*
X91621000Y-104015000D01*
X91621000Y-99665000D02*
X91621000Y-100800000D01*
X91581000Y-102880000D02*
X91581000Y-104040000D01*
X91581000Y-99640000D02*
X91581000Y-100800000D01*
X91541000Y-102880000D02*
X91541000Y-104064000D01*
X91541000Y-99616000D02*
X91541000Y-100800000D01*
X91501000Y-102880000D02*
X91501000Y-104087000D01*
X91501000Y-99593000D02*
X91501000Y-100800000D01*
X91461000Y-102880000D02*
X91461000Y-104108000D01*
X91461000Y-99572000D02*
X91461000Y-100800000D01*
X91421000Y-102880000D02*
X91421000Y-104130000D01*
X91421000Y-99550000D02*
X91421000Y-100800000D01*
X91381000Y-102880000D02*
X91381000Y-104150000D01*
X91381000Y-99530000D02*
X91381000Y-100800000D01*
X91341000Y-102880000D02*
X91341000Y-104169000D01*
X91341000Y-99511000D02*
X91341000Y-100800000D01*
X91301000Y-102880000D02*
X91301000Y-104188000D01*
X91301000Y-99492000D02*
X91301000Y-100800000D01*
X91261000Y-102880000D02*
X91261000Y-104205000D01*
X91261000Y-99475000D02*
X91261000Y-100800000D01*
X91221000Y-102880000D02*
X91221000Y-104222000D01*
X91221000Y-99458000D02*
X91221000Y-100800000D01*
X91181000Y-102880000D02*
X91181000Y-104238000D01*
X91181000Y-99442000D02*
X91181000Y-100800000D01*
X91141000Y-102880000D02*
X91141000Y-104254000D01*
X91141000Y-99426000D02*
X91141000Y-100800000D01*
X91101000Y-102880000D02*
X91101000Y-104268000D01*
X91101000Y-99412000D02*
X91101000Y-100800000D01*
X91061000Y-102880000D02*
X91061000Y-104282000D01*
X91061000Y-99398000D02*
X91061000Y-100800000D01*
X91021000Y-102880000D02*
X91021000Y-104295000D01*
X91021000Y-99385000D02*
X91021000Y-100800000D01*
X90981000Y-102880000D02*
X90981000Y-104308000D01*
X90981000Y-99372000D02*
X90981000Y-100800000D01*
X90941000Y-102880000D02*
X90941000Y-104320000D01*
X90941000Y-99360000D02*
X90941000Y-100800000D01*
X90900000Y-102880000D02*
X90900000Y-104331000D01*
X90900000Y-99349000D02*
X90900000Y-100800000D01*
X90860000Y-102880000D02*
X90860000Y-104341000D01*
X90860000Y-99339000D02*
X90860000Y-100800000D01*
X90820000Y-102880000D02*
X90820000Y-104351000D01*
X90820000Y-99329000D02*
X90820000Y-100800000D01*
X90780000Y-102880000D02*
X90780000Y-104360000D01*
X90780000Y-99320000D02*
X90780000Y-100800000D01*
X90740000Y-102880000D02*
X90740000Y-104368000D01*
X90740000Y-99312000D02*
X90740000Y-100800000D01*
X90700000Y-102880000D02*
X90700000Y-104376000D01*
X90700000Y-99304000D02*
X90700000Y-100800000D01*
X90660000Y-102880000D02*
X90660000Y-104383000D01*
X90660000Y-99297000D02*
X90660000Y-100800000D01*
X90620000Y-102880000D02*
X90620000Y-104390000D01*
X90620000Y-99290000D02*
X90620000Y-100800000D01*
X90580000Y-102880000D02*
X90580000Y-104396000D01*
X90580000Y-99284000D02*
X90580000Y-100800000D01*
X90540000Y-102880000D02*
X90540000Y-104401000D01*
X90540000Y-99279000D02*
X90540000Y-100800000D01*
X90500000Y-102880000D02*
X90500000Y-104405000D01*
X90500000Y-99275000D02*
X90500000Y-100800000D01*
X90460000Y-102880000D02*
X90460000Y-104409000D01*
X90460000Y-99271000D02*
X90460000Y-100800000D01*
X90420000Y-102880000D02*
X90420000Y-104413000D01*
X90420000Y-99267000D02*
X90420000Y-100800000D01*
X90380000Y-102880000D02*
X90380000Y-104416000D01*
X90380000Y-99264000D02*
X90380000Y-100800000D01*
X90340000Y-102880000D02*
X90340000Y-104418000D01*
X90340000Y-99262000D02*
X90340000Y-100800000D01*
X90300000Y-102880000D02*
X90300000Y-104419000D01*
X90300000Y-99261000D02*
X90300000Y-100800000D01*
X90260000Y-102880000D02*
X90260000Y-104420000D01*
X90260000Y-99260000D02*
X90260000Y-100800000D01*
X90220000Y-102880000D02*
X90220000Y-104420000D01*
X90220000Y-99260000D02*
X90220000Y-100800000D01*
X87665225Y-100115000D02*
X87665225Y-100615000D01*
X87415225Y-100365000D02*
X87915225Y-100365000D01*
%TO.C,DOWN(3)*%
X67300000Y-137585000D02*
X54700000Y-137585000D01*
X54700000Y-137585000D02*
X54700000Y-147935000D01*
X62500000Y-147935000D02*
X62200000Y-148435000D01*
X57100000Y-147935000D02*
X62500000Y-147935000D01*
X55650000Y-147935000D02*
X55400000Y-148435000D01*
X54700000Y-147935000D02*
X55650000Y-147935000D01*
X67300000Y-148435000D02*
X67300000Y-137585000D01*
X62200000Y-148435000D02*
X67300000Y-148435000D01*
X57350000Y-148435000D02*
X57100000Y-147935000D01*
X57300000Y-148435000D02*
X57350000Y-148435000D01*
X55400000Y-148435000D02*
X57300000Y-148435000D01*
%TO.C,BJT2*%
X85381522Y-144678478D02*
G75*
G03*
X89820000Y-142840000I1838478J1838478D01*
G01*
X89820000Y-142840000D02*
G75*
G03*
X85381522Y-141001522I-2600000J0D01*
G01*
X85370000Y-141040000D02*
X85370000Y-144640000D01*
%TO.C,BJT3*%
X85381522Y-150408478D02*
G75*
G03*
X89820000Y-148570000I1838478J1838478D01*
G01*
X89820000Y-148570000D02*
G75*
G03*
X85381522Y-146731522I-2600000J0D01*
G01*
X85370000Y-146770000D02*
X85370000Y-150370000D01*
%TO.C,LEFT(0)*%
X67300000Y-101585000D02*
X54700000Y-101585000D01*
X54700000Y-101585000D02*
X54700000Y-111935000D01*
X62500000Y-111935000D02*
X62200000Y-112435000D01*
X57100000Y-111935000D02*
X62500000Y-111935000D01*
X55650000Y-111935000D02*
X55400000Y-112435000D01*
X54700000Y-111935000D02*
X55650000Y-111935000D01*
X67300000Y-112435000D02*
X67300000Y-101585000D01*
X62200000Y-112435000D02*
X67300000Y-112435000D01*
X57350000Y-112435000D02*
X57100000Y-111935000D01*
X57300000Y-112435000D02*
X57350000Y-112435000D01*
X55400000Y-112435000D02*
X57300000Y-112435000D01*
%TO.C,RIGHT(1)*%
X55400000Y-124435000D02*
X57300000Y-124435000D01*
X57300000Y-124435000D02*
X57350000Y-124435000D01*
X57350000Y-124435000D02*
X57100000Y-123935000D01*
X62200000Y-124435000D02*
X67300000Y-124435000D01*
X67300000Y-124435000D02*
X67300000Y-113585000D01*
X54700000Y-123935000D02*
X55650000Y-123935000D01*
X55650000Y-123935000D02*
X55400000Y-124435000D01*
X57100000Y-123935000D02*
X62500000Y-123935000D01*
X62500000Y-123935000D02*
X62200000Y-124435000D01*
X54700000Y-113585000D02*
X54700000Y-123935000D01*
X67300000Y-113585000D02*
X54700000Y-113585000D01*
%TO.C,C3*%
X73275000Y-147130000D02*
X73340000Y-147130000D01*
X71100000Y-147130000D02*
X71165000Y-147130000D01*
X73340000Y-150370000D02*
X73340000Y-147130000D01*
X73275000Y-150370000D02*
X73340000Y-150370000D01*
X71100000Y-150370000D02*
X71100000Y-147130000D01*
X71100000Y-150370000D02*
X71165000Y-150370000D01*
%TO.C,C2*%
X73275000Y-141130000D02*
X73340000Y-141130000D01*
X71100000Y-141130000D02*
X71165000Y-141130000D01*
X73340000Y-144370000D02*
X73340000Y-141130000D01*
X73275000Y-144370000D02*
X73340000Y-144370000D01*
X71100000Y-144370000D02*
X71100000Y-141130000D01*
X71100000Y-144370000D02*
X71165000Y-144370000D01*
%TO.C,A1*%
X92554600Y-104619600D02*
X92554600Y-107289600D01*
X92554600Y-109829600D02*
X92554600Y-148059600D01*
X92554600Y-148059600D02*
X97634600Y-148059600D01*
X95224600Y-107289600D02*
X92554600Y-107289600D01*
X95224600Y-109829600D02*
X92554600Y-109829600D01*
X95224600Y-109829600D02*
X95224600Y-107289600D01*
X95224600Y-109829600D02*
X95224600Y-145389600D01*
X95224600Y-145389600D02*
X92554600Y-145389600D01*
X97634600Y-140179600D02*
X105514600Y-140179600D01*
X97634600Y-150599600D02*
X97634600Y-140179600D01*
X105514600Y-140179600D02*
X105514600Y-150599600D01*
X105514600Y-150599600D02*
X97634600Y-150599600D01*
X107924600Y-107289600D02*
X107924600Y-145389600D01*
X107924600Y-107289600D02*
X110594600Y-107289600D01*
X107924600Y-145389600D02*
X110594600Y-145389600D01*
X110594600Y-104619600D02*
X92554600Y-104619600D01*
X110594600Y-148059600D02*
X105514600Y-148059600D01*
X110594600Y-148059600D02*
X110594600Y-104619600D01*
%TO.C,UP(2)*%
X67300000Y-125585000D02*
X54700000Y-125585000D01*
X54700000Y-125585000D02*
X54700000Y-135935000D01*
X62500000Y-135935000D02*
X62200000Y-136435000D01*
X57100000Y-135935000D02*
X62500000Y-135935000D01*
X55650000Y-135935000D02*
X55400000Y-136435000D01*
X54700000Y-135935000D02*
X55650000Y-135935000D01*
X67300000Y-136435000D02*
X67300000Y-125585000D01*
X62200000Y-136435000D02*
X67300000Y-136435000D01*
X57350000Y-136435000D02*
X57100000Y-135935000D01*
X57300000Y-136435000D02*
X57350000Y-136435000D01*
X55400000Y-136435000D02*
X57300000Y-136435000D01*
%TO.C,C1*%
X73275000Y-135130000D02*
X73340000Y-135130000D01*
X71100000Y-135130000D02*
X71165000Y-135130000D01*
X73340000Y-138370000D02*
X73340000Y-135130000D01*
X73275000Y-138370000D02*
X73340000Y-138370000D01*
X71100000Y-138370000D02*
X71100000Y-135130000D01*
X71100000Y-138370000D02*
X71165000Y-138370000D01*
%TO.C,BJT1*%
X85370000Y-134770000D02*
X85370000Y-138370000D01*
X89820000Y-136570000D02*
G75*
G03*
X85381522Y-134731522I-2600000J0D01*
G01*
X85381522Y-138408478D02*
G75*
G03*
X89820000Y-136570000I1838478J1838478D01*
G01*
%TD*%
M02*
