%TF.GenerationSoftware,KiCad,Pcbnew,7.0.2-0*%
%TF.CreationDate,2023-05-07T21:32:26-07:00*%
%TF.ProjectId,VR-better,56522d62-6574-4746-9572-2e6b69636164,rev?*%
%TF.SameCoordinates,Original*%
%TF.FileFunction,Copper,L2,Bot*%
%TF.FilePolarity,Positive*%
%FSLAX46Y46*%
G04 Gerber Fmt 4.6, Leading zero omitted, Abs format (unit mm)*
G04 Created by KiCad (PCBNEW 7.0.2-0) date 2023-05-07 21:32:26*
%MOMM*%
%LPD*%
G01*
G04 APERTURE LIST*
%TA.AperFunction,ComponentPad*%
%ADD10R,1.500000X1.050000*%
%TD*%
%TA.AperFunction,ComponentPad*%
%ADD11O,1.500000X1.050000*%
%TD*%
%TA.AperFunction,ComponentPad*%
%ADD12C,1.600000*%
%TD*%
%TA.AperFunction,ComponentPad*%
%ADD13R,1.600000X1.600000*%
%TD*%
%TA.AperFunction,ComponentPad*%
%ADD14R,3.960000X1.980000*%
%TD*%
%TA.AperFunction,ComponentPad*%
%ADD15O,3.960000X1.980000*%
%TD*%
%TA.AperFunction,ComponentPad*%
%ADD16O,1.600000X1.600000*%
%TD*%
%TA.AperFunction,ViaPad*%
%ADD17C,0.800000*%
%TD*%
%TA.AperFunction,Conductor*%
%ADD18C,0.250000*%
%TD*%
G04 APERTURE END LIST*
D10*
%TO.P,BJT0,1,E*%
%TO.N,Net-(BJT0-E)*%
X87220000Y-129300000D03*
D11*
%TO.P,BJT0,2,B*%
%TO.N,Net-(A1-D7)*%
X87220000Y-130570000D03*
%TO.P,BJT0,3,C*%
%TO.N,Net-(A1-VIN)*%
X87220000Y-131840000D03*
%TD*%
D12*
%TO.P,C0,1*%
%TO.N,Net-(BJT0-E)*%
X72220000Y-132000000D03*
%TO.P,C0,2*%
%TO.N,GND*%
X72220000Y-129500000D03*
%TD*%
%TO.P,C_Pow1,2*%
%TO.N,GND*%
X91220000Y-101840000D03*
D13*
%TO.P,C_Pow1,1*%
%TO.N,Net-(A1-VIN)*%
X89220000Y-101840000D03*
%TD*%
D14*
%TO.P,DOWN(3),1,Pin_1*%
%TO.N,GND*%
X61000000Y-140235000D03*
D15*
%TO.P,DOWN(3),2,Pin_2*%
%TO.N,Net-(BJT3-E)*%
X61000000Y-145235000D03*
%TD*%
D11*
%TO.P,BJT2,3,C*%
%TO.N,Net-(A1-VIN)*%
X87220000Y-144110000D03*
%TO.P,BJT2,2,B*%
%TO.N,Net-(A1-D9)*%
X87220000Y-142840000D03*
D10*
%TO.P,BJT2,1,E*%
%TO.N,Net-(BJT2-E)*%
X87220000Y-141570000D03*
%TD*%
D11*
%TO.P,BJT3,3,C*%
%TO.N,Net-(A1-VIN)*%
X87220000Y-149840000D03*
%TO.P,BJT3,2,B*%
%TO.N,Net-(A1-D10)*%
X87220000Y-148570000D03*
D10*
%TO.P,BJT3,1,E*%
%TO.N,Net-(BJT3-E)*%
X87220000Y-147300000D03*
%TD*%
D14*
%TO.P,LEFT(0),1,Pin_1*%
%TO.N,GND*%
X61000000Y-104235000D03*
D15*
%TO.P,LEFT(0),2,Pin_2*%
%TO.N,Net-(BJT0-E)*%
X61000000Y-109235000D03*
%TD*%
%TO.P,RIGHT(1),2,Pin_2*%
%TO.N,Net-(BJT1-E)*%
X61000000Y-121235000D03*
D14*
%TO.P,RIGHT(1),1,Pin_1*%
%TO.N,GND*%
X61000000Y-116235000D03*
%TD*%
D12*
%TO.P,C3,2*%
%TO.N,GND*%
X72220000Y-147500000D03*
%TO.P,C3,1*%
%TO.N,Net-(BJT3-E)*%
X72220000Y-150000000D03*
%TD*%
%TO.P,C2,2*%
%TO.N,GND*%
X72220000Y-141500000D03*
%TO.P,C2,1*%
%TO.N,Net-(BJT2-E)*%
X72220000Y-144000000D03*
%TD*%
D13*
%TO.P,A1,1,D1/TX*%
%TO.N,unconnected-(A1-D1{slash}TX-Pad1)*%
X93954600Y-108559600D03*
D16*
%TO.P,A1,2,D0/RX*%
%TO.N,unconnected-(A1-D0{slash}RX-Pad2)*%
X93954600Y-111099600D03*
%TO.P,A1,3,~{RESET}*%
%TO.N,unconnected-(A1-~{RESET}-Pad3)*%
X93954600Y-113639600D03*
%TO.P,A1,4,GND*%
%TO.N,GND*%
X93954600Y-116179600D03*
%TO.P,A1,5,D2*%
%TO.N,unconnected-(A1-D2-Pad5)*%
X93954600Y-118719600D03*
%TO.P,A1,6,D3*%
%TO.N,unconnected-(A1-D3-Pad6)*%
X93954600Y-121259600D03*
%TO.P,A1,7,D4*%
%TO.N,unconnected-(A1-D4-Pad7)*%
X93954600Y-123799600D03*
%TO.P,A1,8,D5*%
%TO.N,unconnected-(A1-D5-Pad8)*%
X93954600Y-126339600D03*
%TO.P,A1,9,D6*%
%TO.N,unconnected-(A1-D6-Pad9)*%
X93954600Y-128879600D03*
%TO.P,A1,10,D7*%
%TO.N,Net-(A1-D7)*%
X93954600Y-131419600D03*
%TO.P,A1,11,D8*%
%TO.N,Net-(A1-D8)*%
X93954600Y-133959600D03*
%TO.P,A1,12,D9*%
%TO.N,Net-(A1-D9)*%
X93954600Y-136499600D03*
%TO.P,A1,13,D10*%
%TO.N,Net-(A1-D10)*%
X93954600Y-139039600D03*
%TO.P,A1,14,D11*%
%TO.N,unconnected-(A1-D11-Pad14)*%
X93954600Y-141579600D03*
%TO.P,A1,15,D12*%
%TO.N,unconnected-(A1-D12-Pad15)*%
X93954600Y-144119600D03*
%TO.P,A1,16,D13*%
%TO.N,unconnected-(A1-D13-Pad16)*%
X109194600Y-144119600D03*
%TO.P,A1,17,3V3*%
%TO.N,unconnected-(A1-3V3-Pad17)*%
X109194600Y-141579600D03*
%TO.P,A1,18,AREF*%
%TO.N,unconnected-(A1-AREF-Pad18)*%
X109194600Y-139039600D03*
%TO.P,A1,19,A0*%
%TO.N,unconnected-(A1-A0-Pad19)*%
X109194600Y-136499600D03*
%TO.P,A1,20,A1*%
%TO.N,unconnected-(A1-A1-Pad20)*%
X109194600Y-133959600D03*
%TO.P,A1,21,A2*%
%TO.N,unconnected-(A1-A2-Pad21)*%
X109194600Y-131419600D03*
%TO.P,A1,22,A3*%
%TO.N,unconnected-(A1-A3-Pad22)*%
X109194600Y-128879600D03*
%TO.P,A1,23,A4*%
%TO.N,unconnected-(A1-A4-Pad23)*%
X109194600Y-126339600D03*
%TO.P,A1,24,A5*%
%TO.N,unconnected-(A1-A5-Pad24)*%
X109194600Y-123799600D03*
%TO.P,A1,25,A6*%
%TO.N,unconnected-(A1-A6-Pad25)*%
X109194600Y-121259600D03*
%TO.P,A1,26,A7*%
%TO.N,unconnected-(A1-A7-Pad26)*%
X109194600Y-118719600D03*
%TO.P,A1,27,+5V*%
%TO.N,unconnected-(A1-+5V-Pad27)*%
X109194600Y-116179600D03*
%TO.P,A1,28,~{RESET}*%
%TO.N,unconnected-(A1-~{RESET}-Pad28)*%
X109194600Y-113639600D03*
%TO.P,A1,29,GND*%
%TO.N,GND*%
X109194600Y-111099600D03*
%TO.P,A1,30,VIN*%
%TO.N,Net-(A1-VIN)*%
X109194600Y-108559600D03*
%TD*%
D14*
%TO.P,UP(2),1,Pin_1*%
%TO.N,GND*%
X61000000Y-128235000D03*
D15*
%TO.P,UP(2),2,Pin_2*%
%TO.N,Net-(BJT2-E)*%
X61000000Y-133235000D03*
%TD*%
D12*
%TO.P,C1,2*%
%TO.N,GND*%
X72220000Y-135500000D03*
%TO.P,C1,1*%
%TO.N,Net-(BJT1-E)*%
X72220000Y-138000000D03*
%TD*%
D10*
%TO.P,BJT1,1,E*%
%TO.N,Net-(BJT1-E)*%
X87220000Y-135300000D03*
D11*
%TO.P,BJT1,2,B*%
%TO.N,Net-(A1-D8)*%
X87220000Y-136570000D03*
%TO.P,BJT1,3,C*%
%TO.N,Net-(A1-VIN)*%
X87220000Y-137840000D03*
%TD*%
D17*
%TO.N,GND*%
X77393800Y-127406400D03*
%TD*%
D18*
%TO.N,GND*%
X72220000Y-135500000D02*
X74278600Y-135500000D01*
X72220000Y-129500000D02*
X73928600Y-129500000D01*
X73928600Y-129500000D02*
X76022200Y-127406400D01*
X77393800Y-127406400D02*
X77825600Y-127406400D01*
X77393800Y-127406400D02*
X78232000Y-126568200D01*
X77393800Y-127406400D02*
X76022200Y-127406400D01*
X77393800Y-127406400D02*
X76758800Y-128041400D01*
X76758800Y-128041400D02*
X76758800Y-133019800D01*
X76758800Y-133019800D02*
X74278600Y-135500000D01*
X79273400Y-128854200D02*
X79273400Y-128981200D01*
X77825600Y-127406400D02*
X79273400Y-128854200D01*
X78232000Y-126568200D02*
X80797400Y-126568200D01*
X80797400Y-126568200D02*
X88798400Y-118567200D01*
X88798400Y-118567200D02*
X91567000Y-118567200D01*
X79273400Y-140446600D02*
X72220000Y-147500000D01*
X79273400Y-128981200D02*
X79273400Y-140446600D01*
X79273400Y-128981200D02*
X79273400Y-134446600D01*
X79273400Y-134446600D02*
X72220000Y-141500000D01*
X91643200Y-118491000D02*
X93954600Y-116179600D01*
X91567000Y-118567200D02*
X91643200Y-118491000D01*
X91643200Y-118491000D02*
X99034600Y-111099600D01*
X99034600Y-111099600D02*
X109194600Y-111099600D01*
X91220000Y-101840000D02*
X91220000Y-118220200D01*
X91220000Y-118220200D02*
X91567000Y-118567200D01*
%TD*%
M02*
