%TF.GenerationSoftware,KiCad,Pcbnew,7.0.2-0*%
%TF.CreationDate,2023-05-07T21:32:26-07:00*%
%TF.ProjectId,VR-better,56522d62-6574-4746-9572-2e6b69636164,rev?*%
%TF.SameCoordinates,Original*%
%TF.FileFunction,Copper,L1,Top*%
%TF.FilePolarity,Positive*%
%FSLAX46Y46*%
G04 Gerber Fmt 4.6, Leading zero omitted, Abs format (unit mm)*
G04 Created by KiCad (PCBNEW 7.0.2-0) date 2023-05-07 21:32:26*
%MOMM*%
%LPD*%
G01*
G04 APERTURE LIST*
%TA.AperFunction,SMDPad,CuDef*%
%ADD10R,3.600000X2.600000*%
%TD*%
%TA.AperFunction,ComponentPad*%
%ADD11R,1.500000X1.050000*%
%TD*%
%TA.AperFunction,ComponentPad*%
%ADD12O,1.500000X1.050000*%
%TD*%
%TA.AperFunction,ComponentPad*%
%ADD13C,1.600000*%
%TD*%
%TA.AperFunction,ComponentPad*%
%ADD14R,1.600000X1.600000*%
%TD*%
%TA.AperFunction,ComponentPad*%
%ADD15R,3.960000X1.980000*%
%TD*%
%TA.AperFunction,ComponentPad*%
%ADD16O,3.960000X1.980000*%
%TD*%
%TA.AperFunction,ComponentPad*%
%ADD17O,1.600000X1.600000*%
%TD*%
%TA.AperFunction,ViaPad*%
%ADD18C,0.800000*%
%TD*%
%TA.AperFunction,Conductor*%
%ADD19C,0.250000*%
%TD*%
G04 APERTURE END LIST*
D10*
%TO.P,BT1,1,+*%
%TO.N,Net-(A1-VIN)*%
X79220000Y-101190000D03*
%TO.P,BT1,2,-*%
%TO.N,GND*%
X79220000Y-130490000D03*
%TD*%
D11*
%TO.P,BJT0,1,E*%
%TO.N,Net-(BJT0-E)*%
X87220000Y-129300000D03*
D12*
%TO.P,BJT0,2,B*%
%TO.N,Net-(A1-D7)*%
X87220000Y-130570000D03*
%TO.P,BJT0,3,C*%
%TO.N,Net-(A1-VIN)*%
X87220000Y-131840000D03*
%TD*%
D13*
%TO.P,C0,1*%
%TO.N,Net-(BJT0-E)*%
X72220000Y-132000000D03*
%TO.P,C0,2*%
%TO.N,GND*%
X72220000Y-129500000D03*
%TD*%
%TO.P,C_Pow1,2*%
%TO.N,GND*%
X91220000Y-101840000D03*
D14*
%TO.P,C_Pow1,1*%
%TO.N,Net-(A1-VIN)*%
X89220000Y-101840000D03*
%TD*%
D15*
%TO.P,DOWN(3),1,Pin_1*%
%TO.N,GND*%
X61000000Y-140235000D03*
D16*
%TO.P,DOWN(3),2,Pin_2*%
%TO.N,Net-(BJT3-E)*%
X61000000Y-145235000D03*
%TD*%
D12*
%TO.P,BJT2,3,C*%
%TO.N,Net-(A1-VIN)*%
X87220000Y-144110000D03*
%TO.P,BJT2,2,B*%
%TO.N,Net-(A1-D9)*%
X87220000Y-142840000D03*
D11*
%TO.P,BJT2,1,E*%
%TO.N,Net-(BJT2-E)*%
X87220000Y-141570000D03*
%TD*%
D12*
%TO.P,BJT3,3,C*%
%TO.N,Net-(A1-VIN)*%
X87220000Y-149840000D03*
%TO.P,BJT3,2,B*%
%TO.N,Net-(A1-D10)*%
X87220000Y-148570000D03*
D11*
%TO.P,BJT3,1,E*%
%TO.N,Net-(BJT3-E)*%
X87220000Y-147300000D03*
%TD*%
D15*
%TO.P,LEFT(0),1,Pin_1*%
%TO.N,GND*%
X61000000Y-104235000D03*
D16*
%TO.P,LEFT(0),2,Pin_2*%
%TO.N,Net-(BJT0-E)*%
X61000000Y-109235000D03*
%TD*%
%TO.P,RIGHT(1),2,Pin_2*%
%TO.N,Net-(BJT1-E)*%
X61000000Y-121235000D03*
D15*
%TO.P,RIGHT(1),1,Pin_1*%
%TO.N,GND*%
X61000000Y-116235000D03*
%TD*%
D13*
%TO.P,C3,2*%
%TO.N,GND*%
X72220000Y-147500000D03*
%TO.P,C3,1*%
%TO.N,Net-(BJT3-E)*%
X72220000Y-150000000D03*
%TD*%
%TO.P,C2,2*%
%TO.N,GND*%
X72220000Y-141500000D03*
%TO.P,C2,1*%
%TO.N,Net-(BJT2-E)*%
X72220000Y-144000000D03*
%TD*%
D14*
%TO.P,A1,1,D1/TX*%
%TO.N,unconnected-(A1-D1{slash}TX-Pad1)*%
X93954600Y-108559600D03*
D17*
%TO.P,A1,2,D0/RX*%
%TO.N,unconnected-(A1-D0{slash}RX-Pad2)*%
X93954600Y-111099600D03*
%TO.P,A1,3,~{RESET}*%
%TO.N,unconnected-(A1-~{RESET}-Pad3)*%
X93954600Y-113639600D03*
%TO.P,A1,4,GND*%
%TO.N,GND*%
X93954600Y-116179600D03*
%TO.P,A1,5,D2*%
%TO.N,unconnected-(A1-D2-Pad5)*%
X93954600Y-118719600D03*
%TO.P,A1,6,D3*%
%TO.N,unconnected-(A1-D3-Pad6)*%
X93954600Y-121259600D03*
%TO.P,A1,7,D4*%
%TO.N,unconnected-(A1-D4-Pad7)*%
X93954600Y-123799600D03*
%TO.P,A1,8,D5*%
%TO.N,unconnected-(A1-D5-Pad8)*%
X93954600Y-126339600D03*
%TO.P,A1,9,D6*%
%TO.N,unconnected-(A1-D6-Pad9)*%
X93954600Y-128879600D03*
%TO.P,A1,10,D7*%
%TO.N,Net-(A1-D7)*%
X93954600Y-131419600D03*
%TO.P,A1,11,D8*%
%TO.N,Net-(A1-D8)*%
X93954600Y-133959600D03*
%TO.P,A1,12,D9*%
%TO.N,Net-(A1-D9)*%
X93954600Y-136499600D03*
%TO.P,A1,13,D10*%
%TO.N,Net-(A1-D10)*%
X93954600Y-139039600D03*
%TO.P,A1,14,D11*%
%TO.N,unconnected-(A1-D11-Pad14)*%
X93954600Y-141579600D03*
%TO.P,A1,15,D12*%
%TO.N,unconnected-(A1-D12-Pad15)*%
X93954600Y-144119600D03*
%TO.P,A1,16,D13*%
%TO.N,unconnected-(A1-D13-Pad16)*%
X109194600Y-144119600D03*
%TO.P,A1,17,3V3*%
%TO.N,unconnected-(A1-3V3-Pad17)*%
X109194600Y-141579600D03*
%TO.P,A1,18,AREF*%
%TO.N,unconnected-(A1-AREF-Pad18)*%
X109194600Y-139039600D03*
%TO.P,A1,19,A0*%
%TO.N,unconnected-(A1-A0-Pad19)*%
X109194600Y-136499600D03*
%TO.P,A1,20,A1*%
%TO.N,unconnected-(A1-A1-Pad20)*%
X109194600Y-133959600D03*
%TO.P,A1,21,A2*%
%TO.N,unconnected-(A1-A2-Pad21)*%
X109194600Y-131419600D03*
%TO.P,A1,22,A3*%
%TO.N,unconnected-(A1-A3-Pad22)*%
X109194600Y-128879600D03*
%TO.P,A1,23,A4*%
%TO.N,unconnected-(A1-A4-Pad23)*%
X109194600Y-126339600D03*
%TO.P,A1,24,A5*%
%TO.N,unconnected-(A1-A5-Pad24)*%
X109194600Y-123799600D03*
%TO.P,A1,25,A6*%
%TO.N,unconnected-(A1-A6-Pad25)*%
X109194600Y-121259600D03*
%TO.P,A1,26,A7*%
%TO.N,unconnected-(A1-A7-Pad26)*%
X109194600Y-118719600D03*
%TO.P,A1,27,+5V*%
%TO.N,unconnected-(A1-+5V-Pad27)*%
X109194600Y-116179600D03*
%TO.P,A1,28,~{RESET}*%
%TO.N,unconnected-(A1-~{RESET}-Pad28)*%
X109194600Y-113639600D03*
%TO.P,A1,29,GND*%
%TO.N,GND*%
X109194600Y-111099600D03*
%TO.P,A1,30,VIN*%
%TO.N,Net-(A1-VIN)*%
X109194600Y-108559600D03*
%TD*%
D15*
%TO.P,UP(2),1,Pin_1*%
%TO.N,GND*%
X61000000Y-128235000D03*
D16*
%TO.P,UP(2),2,Pin_2*%
%TO.N,Net-(BJT2-E)*%
X61000000Y-133235000D03*
%TD*%
D13*
%TO.P,C1,2*%
%TO.N,GND*%
X72220000Y-135500000D03*
%TO.P,C1,1*%
%TO.N,Net-(BJT1-E)*%
X72220000Y-138000000D03*
%TD*%
D11*
%TO.P,BJT1,1,E*%
%TO.N,Net-(BJT1-E)*%
X87220000Y-135300000D03*
D12*
%TO.P,BJT1,2,B*%
%TO.N,Net-(A1-D8)*%
X87220000Y-136570000D03*
%TO.P,BJT1,3,C*%
%TO.N,Net-(A1-VIN)*%
X87220000Y-137840000D03*
%TD*%
D18*
%TO.N,GND*%
X77393800Y-127406400D03*
%TD*%
D19*
%TO.N,Net-(A1-VIN)*%
X96411000Y-125214600D02*
X97129600Y-125933200D01*
X77647800Y-102762200D02*
X77647800Y-111887000D01*
X77647800Y-111887000D02*
X90975400Y-125214600D01*
X90975400Y-125214600D02*
X96411000Y-125214600D01*
X79220000Y-101190000D02*
X77647800Y-102762200D01*
X96665000Y-132544600D02*
X87924600Y-132544600D01*
X97129600Y-125933200D02*
X97129600Y-132080000D01*
X97129600Y-132080000D02*
X96665000Y-132544600D01*
X87924600Y-132544600D02*
X87220000Y-131840000D01*
X79220000Y-101190000D02*
X79220000Y-106118600D01*
X81000600Y-107899200D02*
X81102200Y-107899200D01*
X99136200Y-120192800D02*
X99136200Y-120294400D01*
X88295000Y-143585000D02*
X87770000Y-144110000D01*
X81102200Y-107899200D02*
X93345000Y-120142000D01*
X93345000Y-120142000D02*
X93481209Y-120142000D01*
X93488609Y-120134600D02*
X94420591Y-120134600D01*
X94478791Y-120192800D02*
X99136200Y-120192800D01*
X93481209Y-120142000D02*
X93488609Y-120134600D01*
X79220000Y-106118600D02*
X81000600Y-107899200D01*
X99136200Y-120294400D02*
X100660200Y-121818400D01*
X94420591Y-120134600D02*
X94478791Y-120192800D01*
X100660200Y-121818400D02*
X100660200Y-136118600D01*
X100660200Y-136118600D02*
X98864200Y-137914600D01*
X98864200Y-137914600D02*
X93488609Y-137914600D01*
X93488609Y-137914600D02*
X88295000Y-143108209D01*
X88295000Y-143108209D02*
X88295000Y-143585000D01*
X87770000Y-144110000D02*
X87220000Y-144110000D01*
X101879400Y-120243600D02*
X101879400Y-137820400D01*
X98940400Y-117304600D02*
X101879400Y-120243600D01*
X93352400Y-117304600D02*
X98940400Y-117304600D01*
X79220000Y-101190000D02*
X79220000Y-103172200D01*
X79220000Y-103172200D02*
X93352400Y-117304600D01*
X101879400Y-137820400D02*
X89859800Y-149840000D01*
X89859800Y-149840000D02*
X87220000Y-149840000D01*
X98983800Y-132816600D02*
X96425800Y-135374600D01*
X78613000Y-103931600D02*
X78714600Y-104033200D01*
X79220000Y-101190000D02*
X78613000Y-101797000D01*
X78613000Y-101797000D02*
X78613000Y-103931600D01*
X78714600Y-109931200D02*
X91389200Y-122605800D01*
X78714600Y-104033200D02*
X78714600Y-109931200D01*
X91389200Y-122605800D02*
X97815400Y-122605800D01*
X97815400Y-122605800D02*
X98983800Y-123774200D01*
X98983800Y-123774200D02*
X98983800Y-132816600D01*
X96425800Y-135374600D02*
X93327000Y-135374600D01*
X93327000Y-135374600D02*
X90861600Y-137840000D01*
X90861600Y-137840000D02*
X87220000Y-137840000D01*
%TO.N,GND*%
X77393800Y-127406400D02*
X77393800Y-128663800D01*
X77393800Y-128663800D02*
X79220000Y-130490000D01*
%TO.N,Net-(BJT0-E)*%
X72220000Y-132000000D02*
X74306600Y-134086600D01*
X82276318Y-134086600D02*
X87062918Y-129300000D01*
X87062918Y-129300000D02*
X87220000Y-129300000D01*
X74306600Y-134086600D02*
X82276318Y-134086600D01*
X87220000Y-129300000D02*
X86995000Y-129300000D01*
%TO.N,Net-(A1-D7)*%
X93105000Y-130570000D02*
X93954600Y-131419600D01*
%TO.N,Net-(A1-VIN)*%
X79220000Y-101190000D02*
X78536800Y-101873200D01*
X101350000Y-100715000D02*
X109194600Y-108559600D01*
%TO.N,GND*%
X72220000Y-135500000D02*
X66903600Y-130183600D01*
X66903600Y-130183600D02*
X66903600Y-122138600D01*
X66903600Y-122138600D02*
X61000000Y-116235000D01*
X72220000Y-129500000D02*
X72220000Y-112375000D01*
X72220000Y-112375000D02*
X64080000Y-104235000D01*
X64080000Y-104235000D02*
X61000000Y-104235000D01*
%TO.N,Net-(BJT1-E)*%
X72220000Y-138000000D02*
X65303400Y-131083400D01*
X65303400Y-131083400D02*
X65303400Y-125538400D01*
X65303400Y-125538400D02*
X61000000Y-121235000D01*
%TO.N,GND*%
X61000000Y-128235000D02*
X61000000Y-130280000D01*
X61000000Y-130280000D02*
X72220000Y-141500000D01*
X61000000Y-140235000D02*
X64955000Y-140235000D01*
X64955000Y-140235000D02*
X72220000Y-147500000D01*
%TO.N,Net-(BJT3-E)*%
X72220000Y-150000000D02*
X74920000Y-147300000D01*
X74920000Y-147300000D02*
X87220000Y-147300000D01*
X72220000Y-150000000D02*
X65765000Y-150000000D01*
X65765000Y-150000000D02*
X61000000Y-145235000D01*
%TO.N,Net-(BJT2-E)*%
X72220000Y-144000000D02*
X61455000Y-133235000D01*
X61455000Y-133235000D02*
X61000000Y-133235000D01*
X87220000Y-141570000D02*
X74650000Y-141570000D01*
X74650000Y-141570000D02*
X72220000Y-144000000D01*
%TO.N,Net-(BJT1-E)*%
X87220000Y-135300000D02*
X74920000Y-135300000D01*
X74920000Y-135300000D02*
X72220000Y-138000000D01*
%TO.N,Net-(BJT0-E)*%
X68249800Y-128029800D02*
X68249800Y-109651800D01*
X67833000Y-109235000D02*
X61000000Y-109235000D01*
X72220000Y-132000000D02*
X68249800Y-128029800D01*
X68249800Y-109651800D02*
X67833000Y-109235000D01*
%TO.N,Net-(A1-D10)*%
X87220000Y-148570000D02*
X87875000Y-148570000D01*
X92829600Y-143615400D02*
X92829600Y-140164600D01*
X87875000Y-148570000D02*
X92829600Y-143615400D01*
X92829600Y-140164600D02*
X93954600Y-139039600D01*
%TO.N,Net-(A1-D9)*%
X87220000Y-142840000D02*
X87875000Y-142840000D01*
X87875000Y-142840000D02*
X93954600Y-136760400D01*
X93954600Y-136760400D02*
X93954600Y-136499600D01*
%TO.N,Net-(A1-D8)*%
X87220000Y-136570000D02*
X91344200Y-136570000D01*
X91344200Y-136570000D02*
X93954600Y-133959600D01*
%TO.N,Net-(A1-D7)*%
X87220000Y-130570000D02*
X93105000Y-130570000D01*
%TO.N,Net-(A1-VIN)*%
X79220000Y-101190000D02*
X79695000Y-100715000D01*
X79695000Y-100715000D02*
X101350000Y-100715000D01*
X79220000Y-101190000D02*
X88570000Y-101190000D01*
X88570000Y-101190000D02*
X89220000Y-101840000D01*
%TD*%
M02*
